<svg width="284" height="54" viewBox="0 0 284 54" fill="none" xmlns="http://www.w3.org/2000/svg">
<path d="M22.0538 53.8C7.49375 53.8 0.21375 49.1067 0.21375 39.72V15.08C0.21375 5.16 7.49375 0.199998 22.0538 0.199998C27.0138 0.199998 31.7604 0.706664 36.2938 1.72V7.48C31.1738 6.2 26.4804 5.56 22.2138 5.56C20.1338 5.56 18.3204 5.69333 16.7738 5.96C15.2271 6.17333 13.7338 6.57333 12.2938 7.16C9.20042 8.49333 7.65375 11.1067 7.65375 15V39.32C7.65375 45.2933 12.6138 48.28 22.5338 48.28C26.8004 48.28 31.4938 47.64 36.6138 46.36V52.28C32.0804 53.2933 27.2271 53.8 22.0538 53.8ZM67.29 53.8C52.7833 53.8 45.53 49.1067 45.53 39.72V15.16C45.53 5.24 52.7833 0.279997 67.29 0.279997C81.9567 0.279997 89.29 5.21333 89.29 15.08V39.72C89.29 44.7333 87.2633 48.3333 83.21 50.52C79.1567 52.7067 73.85 53.8 67.29 53.8ZM67.45 48.6C76.9967 48.6 81.77 45.6133 81.77 39.64V14.92C81.77 8.52 76.97 5.32 67.37 5.32C62.73 5.32 59.1567 6.04 56.65 7.48C54.1967 8.92 52.97 11.4 52.97 14.92V39.64C52.97 45.6133 57.7967 48.6 67.45 48.6ZM123.587 53.8C121.134 53.8 118.947 53.6933 117.027 53.48C115.16 53.2667 113.187 52.8667 111.107 52.28C108.76 51.64 106.787 50.84 105.187 49.88C103.587 48.8667 102.28 47.5067 101.267 45.8C100.2 43.9867 99.6669 41.96 99.6669 39.72V15.16C99.6669 12.1733 100.44 9.61333 101.987 7.48C103.534 5.34667 105.667 3.8 108.387 2.84C111 1.93333 113.48 1.29333 115.827 0.919998C118.227 0.493331 120.814 0.279997 123.587 0.279997C130.2 0.279997 136.174 0.706664 141.507 1.56V7.56C139.48 7.08 136.574 6.65333 132.787 6.28C129.054 5.85333 126.04 5.64 123.747 5.64C112.814 5.64 107.347 8.78667 107.347 15.08V39.56C107.347 41.2667 107.854 42.76 108.867 44.04C109.934 45.32 111.374 46.2533 113.187 46.84C114.894 47.48 116.6 47.9333 118.307 48.2C120.014 48.4133 121.934 48.52 124.067 48.52C127.64 48.52 131.454 48.04 135.507 47.08V28.92H123.347V23.48H142.707V51.4C135.774 53 129.4 53.8 123.587 53.8ZM154.548 1.08H163.908L192.148 43.96V1.08H198.948V53H189.588L161.348 9.4V53H154.548V1.08ZM212.361 1.08H220.121V53H212.361V1.08ZM261.81 37.4C261.81 34.68 262.237 32.3333 263.09 30.36C263.997 28.3333 265.17 26.7867 266.61 25.72C268.263 24.44 269.597 23.48 270.61 22.84C273.81 20.7067 275.41 17.9333 275.41 14.52V12.12C275.41 9.72 274.637 8.09333 273.09 7.24C271.597 6.38667 269.01 5.96 265.33 5.96C261.597 5.96 256.503 6.52 250.05 7.64V1.8C255.49 0.786663 261.09 0.279997 266.85 0.279997C272.61 0.279997 276.743 1.13333 279.25 2.84C281.81 4.54666 283.09 7.45333 283.09 11.56V15.56C283.09 17.5333 282.743 19.32 282.05 20.92C281.357 22.4667 280.45 23.72 279.33 24.68C277.197 26.6 274.85 28.3067 272.29 29.8C271.17 30.4933 270.263 31.3733 269.57 32.44C268.877 33.5067 268.53 34.6533 268.53 35.88V39.32H261.81V37.4ZM260.45 44.36H269.73V53H260.45V44.36Z" fill="url(#paint0_linear_355_1296)"/>
<path d="M36.2938 1.72H36.9938V1.15919L36.4465 1.03686L36.2938 1.72ZM36.2938 7.48L36.124 8.1591L36.9938 8.37654V7.48H36.2938ZM16.7738 5.96L16.8694 6.65343L16.8811 6.65182L16.8927 6.64982L16.7738 5.96ZM12.2938 7.16L12.0296 6.5116L12.0167 6.51717L12.2938 7.16ZM36.6138 46.36H37.3138V45.4635L36.444 45.6809L36.6138 46.36ZM36.6138 52.28L36.7665 52.9631L37.3138 52.8408V52.28H36.6138ZM22.0538 53.1C14.8265 53.1 9.52672 51.9311 6.05304 49.6917C2.63212 47.4862 0.91375 44.1992 0.91375 39.72H-0.48625C-0.48625 44.6275 1.43538 48.3804 5.29446 50.8683C9.10078 53.3222 14.721 54.5 22.0538 54.5V53.1ZM0.91375 39.72V15.08H-0.48625V39.72H0.91375ZM0.91375 15.08C0.91375 10.3175 2.64578 6.83003 6.06789 4.49849C9.53814 2.13415 14.8314 0.899998 22.0538 0.899998V-0.500002C14.7161 -0.500002 9.08936 0.74585 5.27961 3.3415C1.42172 5.96996 -0.48625 9.92252 -0.48625 15.08H0.91375ZM22.0538 0.899998C26.9658 0.899998 31.6611 1.40174 36.1411 2.40314L36.4465 1.03686C31.8597 0.0115891 27.0617 -0.500002 22.0538 -0.500002V0.899998ZM35.5938 1.72V7.48H36.9938V1.72H35.5938ZM36.4635 6.8009C31.3005 5.51015 26.5493 4.85999 22.2138 4.85999V6.26C26.4116 6.26 31.047 6.88985 36.124 8.1591L36.4635 6.8009ZM22.2138 4.85999C20.1059 4.85999 18.251 4.99496 16.6548 5.27018L16.8927 6.64982C18.3898 6.3917 20.1616 6.26 22.2138 6.26V4.85999ZM16.6781 5.26657C15.0739 5.48784 13.5239 5.90295 12.0296 6.51173L12.5579 7.80826C13.9436 7.24371 15.3803 6.85882 16.8694 6.65343L16.6781 5.26657ZM12.0167 6.51717C10.3496 7.23574 9.06832 8.31549 8.21135 9.76347C7.35849 11.2045 6.95375 12.9626 6.95375 15H8.35375C8.35375 13.144 8.72235 11.6488 9.41615 10.4765C10.1059 9.31117 11.1446 8.41759 12.5708 7.80283L12.0167 6.51717ZM6.95375 15V39.32H8.35375V15H6.95375ZM6.95375 39.32C6.95375 42.5426 8.31431 45.0149 11.0127 46.6397C13.6542 48.2303 17.5263 48.98 22.5338 48.98V47.58C17.6212 47.58 14.0533 46.8364 11.7348 45.4403C9.47319 44.0785 8.35375 42.0707 8.35375 39.32H6.95375ZM22.5338 48.98C26.8693 48.98 31.6205 48.3298 36.7835 47.0391L36.444 45.6809C31.367 46.9501 26.7316 47.58 22.5338 47.58V48.98ZM35.9138 46.36V52.28H37.3138V46.36H35.9138ZM36.4611 51.5969C31.9831 52.5978 27.1814 53.1 22.0538 53.1V54.5C27.2727 54.5 32.1777 53.9889 36.7665 52.9631L36.4611 51.5969ZM83.21 50.52L82.8776 49.9039L83.21 50.52ZM56.65 7.48L56.3013 6.873L56.2957 6.87631L56.65 7.48ZM67.29 53.1C60.0898 53.1 54.8104 51.9312 51.3503 49.6923C47.9427 47.4874 46.23 44.2003 46.23 39.72H44.83C44.83 44.6263 46.744 48.3793 50.5897 50.8677C54.3829 53.3221 59.9836 54.5 67.29 54.5V53.1ZM46.23 39.72V15.16H44.83V39.72H46.23ZM46.23 15.16C46.23 10.3964 47.9562 6.90891 51.3651 4.57782C54.8218 2.21404 60.0947 0.979998 67.29 0.979998V-0.420004C59.9787 -0.420004 54.3715 0.825953 50.5749 3.42218C46.7304 6.05109 44.83 10.0036 44.83 15.16H46.23ZM67.29 0.979998C74.5669 0.979998 79.9016 2.20783 83.3993 4.5608C86.8476 6.88061 88.59 10.3479 88.59 15.08H89.99C89.99 9.94545 88.0657 6.01272 84.1807 3.39919C80.3451 0.818832 74.6798 -0.420004 67.29 -0.420004V0.979998ZM88.59 15.08V39.72H89.99V15.08H88.59ZM88.59 39.72C88.59 42.1319 88.103 44.1617 87.16 45.8366C86.2189 47.5084 84.8017 48.866 82.8776 49.9039L83.5424 51.1361C85.6717 49.9874 87.2945 48.4516 88.38 46.5234C89.4637 44.5983 89.99 42.3214 89.99 39.72H88.59ZM82.8776 49.9039C78.9606 52.0171 73.7802 53.1 67.29 53.1V54.5C73.9198 54.5 79.3528 53.3962 83.5424 51.1361L82.8776 49.9039ZM67.45 49.3C72.2737 49.3 76.0103 48.5495 78.5613 46.9534C81.167 45.323 82.47 42.8502 82.47 39.64H81.07C81.07 42.4031 79.9863 44.4103 77.8187 45.7666C75.5963 47.1571 72.173 47.9 67.45 47.9V49.3ZM82.47 39.64V14.92H81.07V39.64H82.47ZM82.47 14.92C82.47 11.5161 81.1768 8.88326 78.5583 7.13756C75.9898 5.42526 72.2257 4.62 67.37 4.62V6.02C72.1143 6.02 75.5502 6.81474 77.7817 8.30243C79.9632 9.75674 81.07 11.9239 81.07 14.92H82.47ZM67.37 4.62C62.6743 4.62 58.9599 5.34577 56.3013 6.87303L56.9987 8.08697C59.3535 6.73423 62.7857 6.02 67.37 6.02V4.62ZM56.2957 6.87631C53.5749 8.47325 52.27 11.2204 52.27 14.92H53.67C53.67 11.5796 54.8184 9.36674 57.0043 8.08369L56.2957 6.87631ZM52.27 14.92V39.64H53.67V14.92H52.27ZM52.27 39.64C52.27 42.8537 53.5894 45.3264 56.2217 46.9553C58.7985 48.5498 62.5739 49.3 67.45 49.3V47.9C62.6728 47.9 59.2082 47.1569 56.9583 45.7647C54.7639 44.4069 53.67 42.3996 53.67 39.64H52.27ZM117.027 53.48L116.947 54.1755L116.95 54.1757L117.027 53.48ZM111.107 52.28L111.297 51.6063L111.291 51.6047L111.107 52.28ZM105.187 49.88L104.812 50.4714L104.819 50.4759L104.827 50.4802L105.187 49.88ZM101.267 45.8L100.664 46.1549L100.665 46.1574L101.267 45.8ZM101.987 7.48L102.554 7.89088L101.987 7.48ZM108.387 2.84L108.157 2.17866L108.154 2.1799L108.387 2.84ZM115.827 0.919998L115.937 1.61142L115.949 1.60919L115.827 0.919998ZM141.507 1.56H142.207V0.963097L141.617 0.868792L141.507 1.56ZM141.507 7.56L141.346 8.24116L142.207 8.44515V7.56H141.507ZM132.787 6.27999L132.707 6.97555L132.718 6.97662L132.787 6.27999ZM108.867 44.04L108.318 44.4745L108.323 44.4814L108.329 44.4881L108.867 44.04ZM113.187 46.84L113.433 46.1846L113.418 46.1789L113.402 46.174L113.187 46.84ZM118.307 48.2L118.199 48.8916L118.209 48.8933L118.22 48.8946L118.307 48.2ZM135.507 47.08L135.668 47.7612L136.207 47.6336V47.08H135.507ZM135.507 28.92H136.207V28.22H135.507V28.92ZM123.347 28.92H122.647V29.62H123.347V28.92ZM123.347 23.48V22.78H122.647V23.48H123.347ZM142.707 23.48H143.407V22.78H142.707V23.48ZM142.707 51.4L142.864 52.0821L143.407 51.9569V51.4H142.707ZM123.587 53.1C121.153 53.1 118.993 52.9941 117.104 52.7843L116.95 54.1757C118.901 54.3925 121.114 54.5 123.587 54.5V53.1ZM117.106 52.7845C115.282 52.576 113.346 52.1842 111.297 51.6063L110.917 52.9537C113.028 53.5491 115.038 53.9573 116.947 54.1755L117.106 52.7845ZM111.291 51.6047C108.989 50.9767 107.078 50.1986 105.547 49.2798L104.827 50.4802C106.495 51.4814 108.532 52.3033 110.923 52.9553L111.291 51.6047ZM105.561 49.2886C104.059 48.3371 102.829 47.0592 101.869 45.4426L100.665 46.1574C101.732 47.9542 103.115 49.3962 104.812 50.4714L105.561 49.2886ZM101.87 45.4451C100.871 43.7463 100.367 41.8436 100.367 39.72H98.9669C98.9669 42.0764 99.5295 44.227 100.664 46.1549L101.87 45.4451ZM100.367 39.72V15.16H98.9669V39.72H100.367ZM100.367 15.16C100.367 12.3004 101.105 9.88911 102.554 7.89088L101.42 7.06912C99.7755 9.33755 98.9669 12.0463 98.9669 15.16H100.367ZM102.554 7.89088C104.009 5.88345 106.021 4.4175 108.62 3.50009L108.154 2.1799C105.313 3.1825 103.058 4.80988 101.42 7.06912L102.554 7.89088ZM108.616 3.50133C111.197 2.60601 113.637 1.97722 115.937 1.61131L115.717 0.228691C113.324 0.609434 110.803 1.26065 108.157 2.17867L108.616 3.50133ZM115.949 1.60919C118.304 1.19062 120.849 0.979998 123.587 0.979998V-0.420004C120.778 -0.420004 118.15 -0.203955 115.704 0.230804L115.949 1.60919ZM123.587 0.979998C130.171 0.979998 136.107 1.40485 141.396 2.25121L141.617 0.868792C136.241 0.00847816 130.229 -0.420004 123.587 -0.420004V0.979998ZM140.807 1.56V7.56H142.207V1.56H140.807ZM141.668 6.87884C139.596 6.388 136.652 5.95771 132.856 5.58337L132.718 6.97662C136.495 7.34895 139.365 7.772 141.346 8.24116L141.668 6.87884ZM132.866 5.58452C129.121 5.15648 126.078 4.94 123.747 4.94V6.34C126.002 6.34 128.986 6.55018 132.707 6.97547L132.866 5.58452ZM123.747 4.94C118.236 4.94 113.989 5.729 111.098 7.39332C108.148 9.09123 106.647 11.6822 106.647 15.08H108.047C108.047 12.1844 109.279 10.0554 111.796 8.60667C114.371 7.12433 118.324 6.34 123.747 6.34V4.94ZM106.647 15.08V39.56H108.047V15.08H106.647ZM106.647 39.56C106.647 41.4167 107.202 43.0649 108.318 44.4745L109.416 43.6055C108.505 42.4551 108.047 41.1167 108.047 39.56H106.647ZM108.329 44.4881C109.492 45.8837 111.051 46.8846 112.971 47.506L113.402 46.174C111.696 45.622 110.375 44.7563 109.405 43.5919L108.329 44.4881ZM112.941 47.4954C114.69 48.1512 116.443 48.6172 118.199 48.8916L118.415 47.5084C116.758 47.2495 115.097 46.8088 113.433 46.1846L112.941 47.4954ZM118.22 48.8946C119.961 49.1123 121.911 49.22 124.067 49.22V47.82C121.956 47.82 120.066 47.7144 118.394 47.5054L118.22 48.8946ZM124.067 49.22C127.703 49.22 131.57 48.7317 135.668 47.7612L135.346 46.3988C131.337 47.3483 127.578 47.82 124.067 47.82V49.22ZM136.207 47.08V28.92H134.807V47.08H136.207ZM135.507 28.22H123.347V29.62H135.507V28.22ZM124.047 28.92V23.48H122.647V28.92H124.047ZM123.347 24.18H142.707V22.78H123.347V24.18ZM142.007 23.48V51.4H143.407V23.48H142.007ZM142.549 50.7179C135.657 52.3086 129.337 53.1 123.587 53.1V54.5C129.463 54.5 135.89 53.6914 142.864 52.0821L142.549 50.7179ZM154.548 1.08V0.379995H153.848V1.08H154.548ZM163.908 1.08L164.493 0.694984L164.285 0.379995H163.908V1.08ZM192.148 43.96L191.564 44.345L192.848 46.2956V43.96H192.148ZM192.148 1.08V0.379995H191.448V1.08H192.148ZM198.948 1.08H199.648V0.379995H198.948V1.08ZM198.948 53V53.7H199.648V53H198.948ZM189.588 53L189.001 53.3805L189.208 53.7H189.588V53ZM161.348 9.4L161.936 9.01945L160.648 7.03163V9.4H161.348ZM161.348 53V53.7H162.048V53H161.348ZM154.548 53H153.848V53.7H154.548V53ZM154.548 1.78H163.908V0.379995H154.548V1.78ZM163.324 1.46501L191.564 44.345L192.733 43.575L164.493 0.694984L163.324 1.46501ZM192.848 43.96V1.08H191.448V43.96H192.848ZM192.148 1.78H198.948V0.379995H192.148V1.78ZM198.248 1.08V53H199.648V1.08H198.248ZM198.948 52.3H189.588V53.7H198.948V52.3ZM190.176 52.6195L161.936 9.01945L160.761 9.78054L189.001 53.3805L190.176 52.6195ZM160.648 9.4V53H162.048V9.4H160.648ZM161.348 52.3H154.548V53.7H161.348V52.3ZM155.248 53V1.08H153.848V53H155.248ZM212.361 1.08V0.379995H211.661V1.08H212.361ZM220.121 1.08H220.821V0.379995H220.121V1.08ZM220.121 53V53.7H220.821V53H220.121ZM212.361 53H211.661V53.7H212.361V53ZM212.361 1.78H220.121V0.379995H212.361V1.78ZM219.421 1.08V53H220.821V1.08H219.421ZM220.121 52.3H212.361V53.7H220.121V52.3ZM213.061 53V1.08H211.661V53H213.061ZM263.09 30.36L262.451 30.0741L262.448 30.0822L263.09 30.36ZM266.61 25.72L267.027 26.2825L267.033 26.2781L267.039 26.2735L266.61 25.72ZM270.61 22.84L270.984 23.4318L270.991 23.4272L270.998 23.4224L270.61 22.84ZM273.09 7.24L272.743 7.84784L272.752 7.8529L273.09 7.24ZM250.05 7.64H249.35V8.47195L250.17 8.32969L250.05 7.64ZM250.05 1.8L249.922 1.11183L249.35 1.21835V1.8H250.05ZM279.25 2.84L278.856 3.41864L278.862 3.42243L279.25 2.84ZM282.05 20.92L282.689 21.2064L282.692 21.1983L282.05 20.92ZM279.33 24.68L278.874 24.1485L278.868 24.154L278.862 24.1597L279.33 24.68ZM272.29 29.8L271.937 29.1954L271.929 29.2L271.922 29.2048L272.29 29.8ZM269.57 32.44L270.157 32.8215L269.57 32.44ZM268.53 39.32V40.02H269.23V39.32H268.53ZM261.81 39.32H261.11V40.02H261.81V39.32ZM260.45 44.36V43.66H259.75V44.36H260.45ZM269.73 44.36H270.43V43.66H269.73V44.36ZM269.73 53V53.7H270.43V53H269.73ZM260.45 53H259.75V53.7H260.45V53ZM262.51 37.4C262.51 34.7511 262.926 32.5035 263.733 30.6378L262.448 30.0822C261.548 32.1632 261.11 34.6089 261.11 37.4H262.51ZM263.729 30.6459C264.598 28.703 265.704 27.2624 267.027 26.2825L266.193 25.1575C264.636 26.311 263.395 27.9636 262.451 30.0741L263.729 30.6459ZM267.039 26.2735C268.685 24.9987 269.998 24.0544 270.984 23.4318L270.236 22.2482C269.195 22.9056 267.842 23.8813 266.181 25.1665L267.039 26.2735ZM270.998 23.4224C274.364 21.1786 276.11 18.2001 276.11 14.52H274.71C274.71 17.6665 273.256 20.2348 270.222 22.2576L270.998 23.4224ZM276.11 14.52V12.12H274.71V14.52H276.11ZM276.11 12.12C276.11 9.56931 275.276 7.64685 273.428 6.62709L272.752 7.8529C273.997 8.53981 274.71 9.87068 274.71 12.12H276.11ZM273.437 6.63223C271.772 5.68081 269.022 5.26 265.33 5.26V6.66C268.998 6.66 271.421 7.09252 272.743 7.84777L273.437 6.63223ZM265.33 5.26C261.537 5.26 256.398 5.82774 249.93 6.95031L250.17 8.32969C256.608 7.21226 261.656 6.66 265.33 6.66V5.26ZM250.75 7.64V1.8H249.35V7.64H250.75ZM250.178 2.48816C255.574 1.48302 261.131 0.979998 266.85 0.979998V-0.420004C261.049 -0.420004 255.406 0.0903111 249.922 1.11183L250.178 2.48816ZM266.85 0.979998C272.577 0.979998 276.53 1.83524 278.856 3.41862L279.644 2.26138C276.956 0.431423 272.643 -0.420004 266.85 -0.420004V0.979998ZM278.862 3.42243C281.164 4.95756 282.39 7.60059 282.39 11.56H283.79C283.79 7.30607 282.456 4.13577 279.638 2.25756L278.862 3.42243ZM282.39 11.56V15.56H283.79V11.56H282.39ZM282.39 15.56C282.39 17.4502 282.058 19.1404 281.408 20.6417L282.692 21.1983C283.428 19.4996 283.79 17.6165 283.79 15.56H282.39ZM281.411 20.6337C280.754 22.1001 279.905 23.2651 278.874 24.1485L279.786 25.2115C280.995 24.1749 281.959 22.8332 282.689 21.2063L281.411 20.6337ZM278.862 24.1597C276.765 26.0467 274.457 27.7253 271.937 29.1954L272.643 30.4046C275.243 28.888 277.628 27.1533 279.798 25.2003L278.862 24.1597ZM271.922 29.2048C270.717 29.9504 269.735 30.9023 268.983 32.0585L270.157 32.8215C270.792 31.8444 271.623 31.0362 272.658 30.3952L271.922 29.2048ZM268.983 32.0585C268.219 33.2343 267.83 34.5127 267.83 35.88H269.23C269.23 34.794 269.534 33.7791 270.157 32.8215L268.983 32.0585ZM267.83 35.88V39.32H269.23V35.88H267.83ZM268.53 38.62H261.81V40.02H268.53V38.62ZM262.51 39.32V37.4H261.11V39.32H262.51ZM260.45 45.06H269.73V43.66H260.45V45.06ZM269.03 44.36V53H270.43V44.36H269.03ZM269.73 52.3H260.45V53.7H269.73V52.3ZM261.15 53V44.36H259.75V53H261.15Z" fill="url(#paint1_linear_355_1296)"/>
<defs>
<linearGradient id="paint0_linear_355_1296" x1="141.5" y1="-22" x2="141.5" y2="71" gradientUnits="userSpaceOnUse">
<stop stop-color="#51B579"/>
<stop offset="1" stop-color="#81F0A1"/>
</linearGradient>
<linearGradient id="paint1_linear_355_1296" x1="141.5" y1="-22" x2="141.5" y2="71" gradientUnits="userSpaceOnUse">
<stop stop-color="#51B579"/>
<stop offset="1" stop-color="#81F0A1"/>
</linearGradient>
</defs>
</svg>
