<svg width="140" height="140" viewBox="0 0 140 140" fill="none" xmlns="http://www.w3.org/2000/svg">
<circle cx="70" cy="70" r="55" stroke="#FFF596" stroke-width="30"/>
<path d="M125 70C125 62.7773 123.577 55.6253 120.813 48.9524C118.049 42.2795 113.998 36.2163 108.891 31.1091C103.784 26.0019 97.7205 21.9506 91.0476 19.1866C84.3747 16.4226 77.2227 15 70 15C62.7773 15 55.6253 16.4226 48.9524 19.1866C42.2795 21.9506 36.2163 26.0019 31.1091 31.1091C26.0019 36.2164 21.9506 42.2795 19.1866 48.9524C16.4226 55.6253 15 62.7773 15 70" stroke="#FF7FBC" stroke-width="30" stroke-linecap="round"/>
<path d="M70 125C55.4131 125 41.4236 119.205 31.1091 108.891C20.7946 98.5764 15 84.5869 15 70C15 55.4131 20.7946 41.4236 31.1091 31.1091C41.4236 20.7946 55.4131 15 70 15" stroke="url(#paint0_linear_359_931)" stroke-width="30" stroke-linecap="round"/>
<circle cx="125" cy="70" r="7" stroke="white" stroke-width="2"/>
<path d="M70 50L76 64L90 70L76 76L70 90L64 76L50 70L64 64L70 50Z" fill="white"/>
<path d="M69.0646 38.212H70.9366V46H69.0646V38.212Z" fill="white"/>
<path d="M67.1779 94.212H73.1179V95.544H69.0499V97.332H72.7219V98.664H69.0499V100.668H73.2379V102H67.1779V94.212Z" fill="white"/>
<path d="M38.3341 66.212H40.2301L43.9981 71.528V66.212H45.6661V74H43.7701L40.0021 68.6V74H38.3341V66.212Z" fill="white"/>
<path d="M97.7213 74.12C96.9773 74.12 96.0573 74.048 94.9613 73.904V72.476C96.3213 72.684 97.2493 72.788 97.7453 72.788C98.7853 72.788 99.3053 72.52 99.3053 71.984V71.48C99.3053 71.224 99.2293 71.028 99.0773 70.892C98.9333 70.756 98.6693 70.688 98.2853 70.688H97.3733C95.6613 70.688 94.8053 70.008 94.8053 68.648V68.072C94.8053 67.392 95.0893 66.892 95.6573 66.572C96.2253 66.252 97.1253 66.092 98.3573 66.092C98.9973 66.092 99.8093 66.144 100.793 66.248V67.64C99.5853 67.496 98.7533 67.424 98.2973 67.424C97.6653 67.424 97.2413 67.476 97.0253 67.58C96.7933 67.692 96.6773 67.868 96.6773 68.108V68.66C96.6773 69.068 97.0213 69.272 97.7093 69.272H98.6453C99.5333 69.272 100.177 69.436 100.577 69.764C100.977 70.092 101.177 70.592 101.177 71.264V71.78C101.177 72.708 100.845 73.336 100.181 73.664C99.8613 73.832 99.5053 73.948 99.1133 74.012C98.7293 74.084 98.2653 74.12 97.7213 74.12Z" fill="white"/>
<path d="M81.0716 55.544H78.6716V54.212H85.3316V55.544H82.9436V62H81.0716V55.544Z" fill="white"/>
<path d="M55.1779 78.212H61.2379V79.544H57.0499V81.452H60.8419V82.784H57.0499V86H55.1779V78.212Z" fill="white"/>
<path d="M81.1761 86.12C80.6321 86.12 80.0921 86.08 79.5561 86V84.632C80.1241 84.736 80.6161 84.788 81.0321 84.788C81.6641 84.788 81.9801 84.504 81.9801 83.936V78.212H83.8521V83.876C83.8521 84.692 83.6321 85.272 83.1921 85.616C82.7521 85.952 82.0801 86.12 81.1761 86.12Z" fill="white"/>
<path d="M55.0783 54.212H58.1983C58.9583 54.212 59.5583 54.264 59.9983 54.368C60.4463 54.472 60.7703 54.656 60.9703 54.92C61.1783 55.176 61.2823 55.536 61.2823 56V57.476C61.2823 57.988 61.1703 58.388 60.9463 58.676C60.7303 58.964 60.3823 59.168 59.9023 59.288C59.4303 59.408 58.7903 59.468 57.9823 59.468H56.9503V62H55.0783V54.212ZM58.1383 58.184C58.6263 58.184 58.9703 58.128 59.1703 58.016C59.3703 57.896 59.4703 57.696 59.4703 57.416V56.168C59.4703 55.912 59.3743 55.744 59.1823 55.664C58.9983 55.584 58.6423 55.544 58.1143 55.544H56.9503V58.184H58.1383Z" fill="white"/>
<defs>
<linearGradient id="paint0_linear_359_931" x1="70" y1="30.5" x2="73.5" y2="110" gradientUnits="userSpaceOnUse">
<stop stop-color="#FF7FBC"/>
<stop offset="1" stop-color="#FFF596"/>
</linearGradient>
</defs>
</svg>
