<svg width="400" height="40" viewBox="0 0 400 40" fill="none" xmlns="http://www.w3.org/2000/svg">
<path d="M0.36 0.847998V0.347998H-0.14V0.847998H0.36ZM7.848 0.847998H8.348V0.347998H7.848V0.847998ZM7.848 13.328H7.348V13.828H7.848V13.328ZM21.096 13.328V13.828H21.596V13.328H21.096ZM21.096 0.847998V0.347998H20.596V0.847998H21.096ZM28.584 0.847998H29.084V0.347998H28.584V0.847998ZM28.584 32V32.5H29.084V32H28.584ZM21.096 32H20.596V32.5H21.096V32ZM21.096 18.656H21.596V18.156H21.096V18.656ZM7.848 18.656V18.156H7.348V18.656H7.848ZM7.848 32V32.5H8.348V32H7.848ZM0.36 32H-0.14V32.5H0.36V32ZM0.36 1.348H7.848V0.347998H0.36V1.348ZM7.348 0.847998V13.328H8.348V0.847998H7.348ZM7.848 13.828H21.096V12.828H7.848V13.828ZM21.596 13.328V0.847998H20.596V13.328H21.596ZM21.096 1.348H28.584V0.347998H21.096V1.348ZM28.084 0.847998V32H29.084V0.847998H28.084ZM28.584 31.5H21.096V32.5H28.584V31.5ZM21.596 32V18.656H20.596V32H21.596ZM21.096 18.156H7.848V19.156H21.096V18.156ZM7.348 18.656V32H8.348V18.656H7.348ZM7.848 31.5H0.36V32.5H7.848V31.5ZM0.86 32V0.847998H-0.14V32H0.86ZM43.5379 0.847998V0.347998H43.1897L43.0689 0.674576L43.5379 0.847998ZM52.6579 0.847998L53.1282 0.678407L53.0091 0.347998H52.6579V0.847998ZM63.8899 32V32.5H64.6017L64.3602 31.8304L63.8899 32ZM56.3059 32L55.8324 32.1606L55.9475 32.5H56.3059V32ZM53.5219 23.792L53.9954 23.6314L53.8803 23.292H53.5219V23.792ZM42.1459 23.792V23.292H41.7855L41.6715 23.6339L42.1459 23.792ZM39.4099 32V32.5H39.7703L39.8842 32.1581L39.4099 32ZM32.0179 32L31.5489 31.8266L31.2999 32.5H32.0179V32ZM51.8899 18.8V19.3H52.5854L52.3638 18.6407L51.8899 18.8ZM47.9539 7.088L48.4278 6.92872L48.3133 6.588H47.9539V7.088ZM47.7619 7.088V6.588H47.4024L47.2879 6.92872L47.7619 7.088ZM43.8259 18.8L43.3519 18.6407L43.1304 19.3H43.8259V18.8ZM43.5379 1.348H52.6579V0.347998H43.5379V1.348ZM52.1875 1.01759L63.4195 32.1696L64.3602 31.8304L53.1282 0.678407L52.1875 1.01759ZM63.8899 31.5H56.3059V32.5H63.8899V31.5ZM56.7794 31.8394L53.9954 23.6314L53.0484 23.9526L55.8324 32.1606L56.7794 31.8394ZM53.5219 23.292H42.1459V24.292H53.5219V23.292ZM41.6715 23.6339L38.9355 31.8419L39.8842 32.1581L42.6202 23.9501L41.6715 23.6339ZM39.4099 31.5H32.0179V32.5H39.4099V31.5ZM32.4868 32.1734L44.0068 1.02142L43.0689 0.674576L31.5489 31.8266L32.4868 32.1734ZM52.3638 18.6407L48.4278 6.92872L47.4799 7.24728L51.4159 18.9593L52.3638 18.6407ZM47.9539 6.588H47.7619V7.588H47.9539V6.588ZM47.2879 6.92872L43.3519 18.6407L44.2998 18.9593L48.2358 7.24728L47.2879 6.92872ZM43.8259 19.3H51.8899V18.3H43.8259V19.3ZM67.3444 0.847998V0.347998H66.8444V0.847998H67.3444ZM74.8324 0.847998H75.3324V0.347998H74.8324V0.847998ZM74.8324 26.72H74.3324V27.22H74.8324V26.72ZM84.6244 26.72V27.22H85.1244V26.72H84.6244ZM84.6244 0.847998V0.347998H84.1244V0.847998H84.6244ZM92.1124 0.847998H92.6124V0.347998H92.1124V0.847998ZM92.1124 26.72H91.6124V27.22H92.1124V26.72ZM101.904 26.72V27.22H102.404V26.72H101.904ZM101.904 0.847998V0.347998H101.404V0.847998H101.904ZM109.392 0.847998H109.892V0.347998H109.392V0.847998ZM109.392 32V32.5H109.892V32H109.392ZM67.3444 32H66.8444V32.5H67.3444V32ZM67.3444 1.348H74.8324V0.347998H67.3444V1.348ZM74.3324 0.847998V26.72H75.3324V0.847998H74.3324ZM74.8324 27.22H84.6244V26.22H74.8324V27.22ZM85.1244 26.72V0.847998H84.1244V26.72H85.1244ZM84.6244 1.348H92.1124V0.347998H84.6244V1.348ZM91.6124 0.847998V26.72H92.6124V0.847998H91.6124ZM92.1124 27.22H101.904V26.22H92.1124V27.22ZM102.404 26.72V0.847998H101.404V26.72H102.404ZM101.904 1.348H109.392V0.347998H101.904V1.348ZM108.892 0.847998V32H109.892V0.847998H108.892ZM109.392 31.5H67.3444V32.5H109.392V31.5ZM67.8444 32V0.847998H66.8444V32H67.8444ZM124.35 0.847998V0.347998H124.002L123.881 0.674576L124.35 0.847998ZM133.47 0.847998L133.941 0.678407L133.822 0.347998H133.47V0.847998ZM144.702 32V32.5H145.414L145.173 31.8304L144.702 32ZM137.118 32L136.645 32.1606L136.76 32.5H137.118V32ZM134.334 23.792L134.808 23.6314L134.693 23.292H134.334V23.792ZM122.958 23.792V23.292H122.598L122.484 23.6339L122.958 23.792ZM120.222 32V32.5H120.583L120.697 32.1581L120.222 32ZM112.83 32L112.361 31.8266L112.112 32.5H112.83V32ZM132.702 18.8V19.3H133.398L133.176 18.6407L132.702 18.8ZM128.766 7.088L129.24 6.92872L129.126 6.588H128.766V7.088ZM128.574 7.088V6.588H128.215L128.1 6.92872L128.574 7.088ZM124.638 18.8L124.164 18.6407L123.943 19.3H124.638V18.8ZM124.35 1.348H133.47V0.347998H124.35V1.348ZM133 1.01759L144.232 32.1696L145.173 31.8304L133.941 0.678407L133 1.01759ZM144.702 31.5H137.118V32.5H144.702V31.5ZM137.592 31.8394L134.808 23.6314L133.861 23.9526L136.645 32.1606L137.592 31.8394ZM134.334 23.292H122.958V24.292H134.334V23.292ZM122.484 23.6339L119.748 31.8419L120.697 32.1581L123.433 23.9501L122.484 23.6339ZM120.222 31.5H112.83V32.5H120.222V31.5ZM113.299 32.1734L124.819 1.02142L123.881 0.674576L112.361 31.8266L113.299 32.1734ZM133.176 18.6407L129.24 6.92872L128.292 7.24728L132.228 18.9593L133.176 18.6407ZM128.766 6.588H128.574V7.588H128.766V6.588ZM128.1 6.92872L124.164 18.6407L125.112 18.9593L129.048 7.24728L128.1 6.92872ZM124.638 19.3H132.702V18.3H124.638V19.3ZM159.219 0.847998V0.347998H158.719V0.847998H159.219ZM166.707 0.847998H167.207V0.347998H166.707V0.847998ZM166.707 13.136H166.207V13.636H166.707V13.136ZM170.115 12.368L170.37 12.7983L170.382 12.7911L170.115 12.368ZM172.947 9.296L172.536 9.01114L172.534 9.0146L172.947 9.296ZM178.803 0.847998V0.347998H178.542L178.392 0.563149L178.803 0.847998ZM187.203 0.847998L187.61 1.1396L188.178 0.347998H187.203V0.847998ZM180.483 10.208L180.077 9.91639L180.076 9.91824L180.483 10.208ZM177.651 13.52L177.983 13.8945L177.984 13.8937L177.651 13.52ZM174.531 15.344L174.352 14.8773L174.031 15.0006V15.344H174.531ZM174.531 15.44H174.031V15.8342L174.415 15.9262L174.531 15.44ZM178.515 17.504L178.173 17.8685L178.178 17.8735L178.515 17.504ZM181.683 21.824L181.244 22.0624L181.244 22.0624L181.683 21.824ZM187.203 32V32.5H188.043L187.643 31.7616L187.203 32ZM178.803 32L178.366 32.2426L178.509 32.5H178.803V32ZM173.715 22.832L173.278 23.0738L173.278 23.0746L173.715 22.832ZM171.747 20.096L171.385 20.4404L171.394 20.4497L171.403 20.4585L171.747 20.096ZM169.683 18.8L169.823 18.32L169.683 18.8ZM166.707 18.464V17.964H166.207V18.464H166.707ZM166.707 32V32.5H167.207V32H166.707ZM159.219 32H158.719V32.5H159.219V32ZM159.219 1.348H166.707V0.347998H159.219V1.348ZM166.207 0.847998V13.136H167.207V0.847998H166.207ZM166.707 13.636C168.171 13.636 169.404 13.3707 170.37 12.7981L169.86 11.9379C169.099 12.3893 168.06 12.636 166.707 12.636V13.636ZM170.382 12.7911C171.333 12.1922 172.324 11.1007 173.361 9.57739L172.534 9.0146C171.523 10.4993 170.626 11.4558 169.849 11.9449L170.382 12.7911ZM173.358 9.58085L179.214 1.13285L178.392 0.563149L172.536 9.01115L173.358 9.58085ZM178.803 1.348H187.203V0.347998H178.803V1.348ZM186.797 0.556395L180.077 9.9164L180.89 10.4996L187.61 1.1396L186.797 0.556395ZM180.076 9.91824C179.064 11.3418 178.144 12.4128 177.319 13.1463L177.984 13.8937C178.886 13.0912 179.855 11.9542 180.891 10.4978L180.076 9.91824ZM177.32 13.1455C176.541 13.8348 175.555 14.4145 174.352 14.8773L174.711 15.8107C176.004 15.3135 177.098 14.6772 177.983 13.8945L177.32 13.1455ZM174.031 15.344V15.44H175.031V15.344H174.031ZM174.415 15.9262C175.942 16.2927 177.189 16.9436 178.173 17.8684L178.858 17.1396C177.73 16.0804 176.321 15.3553 174.648 14.9538L174.415 15.9262ZM178.178 17.8735C179.211 18.8148 180.235 20.203 181.244 22.0624L182.123 21.5856C181.083 19.6689 179.996 18.1772 178.852 17.1345L178.178 17.8735ZM181.244 22.0624L186.764 32.2384L187.643 31.7616L182.123 21.5856L181.244 22.0624ZM187.203 31.5H178.803V32.5H187.203V31.5ZM179.241 31.7574L174.153 22.5894L173.278 23.0746L178.366 32.2426L179.241 31.7574ZM174.153 22.5902C173.469 21.352 172.784 20.3909 172.092 19.7335L171.403 20.4585C171.991 21.0171 172.618 21.88 173.278 23.0738L174.153 22.5902ZM172.11 19.7516C171.447 19.0544 170.685 18.5713 169.823 18.32L169.543 19.28C170.218 19.4767 170.831 19.8576 171.385 20.4404L172.11 19.7516ZM169.823 18.32C168.993 18.0778 167.949 17.964 166.707 17.964V18.964C167.898 18.964 168.838 19.0742 169.543 19.28L169.823 18.32ZM166.207 18.464V32H167.207V18.464H166.207ZM166.707 31.5H159.219V32.5H166.707V31.5ZM159.719 32V0.847998H158.719V32H159.719ZM199.936 32.144L199.86 32.6381L199.861 32.6383L199.936 32.144ZM195.424 30.992L195.588 30.5196L195.585 30.5186L195.424 30.992ZM191.441 28.208L191.037 28.5033L191.04 28.508L191.441 28.208ZM191.008 5.696L190.576 5.44543L190.571 5.45415L191.008 5.696ZM193.697 2.816L193.429 2.39357L193.425 2.39621L193.697 2.816ZM197.249 1.28L197.39 1.75951L197.249 1.28ZM201.184 0.511999L201.224 1.01046L201.227 1.01017L201.184 0.511999ZM208.577 0.559999L208.518 1.05657L208.525 1.05742L208.533 1.05806L208.577 0.559999ZM212.225 1.232L212.365 0.751815L212.351 0.748312L212.225 1.232ZM216.017 2.864L216.288 2.44385V2.44385L216.017 2.864ZM218.512 5.552L218.081 5.80394L218.083 5.80754L218.512 5.552ZM218.176 27.92L217.775 27.6216L217.77 27.6284L218.176 27.92ZM214.432 30.752L214.247 30.2878L214.432 30.752ZM207.473 27.056L207.518 27.5539L207.527 27.5531L207.537 27.5518L207.473 27.056ZM209.729 26.576L209.589 26.096L209.729 26.576ZM211.456 25.472L211.059 25.1683L211.057 25.172L211.456 25.472ZM210.305 6.656L210.067 7.09595L210.076 7.10078L210.305 6.656ZM198.113 25.472L197.715 25.7757L197.72 25.7816L197.724 25.7873L198.113 25.472ZM199.936 26.576L200.077 26.096L200.071 26.0945L199.936 26.576ZM202.145 27.056L202.077 27.5514L202.089 27.5531L202.101 27.5541L202.145 27.056ZM204.736 31.98C203.03 31.98 201.455 31.8694 200.012 31.6497L199.861 32.6383C201.362 32.8666 202.987 32.98 204.736 32.98V31.98ZM200.013 31.6499C198.607 31.4311 197.132 31.0551 195.588 30.5196L195.261 31.4644C196.853 32.0169 198.386 32.4089 199.86 32.6381L200.013 31.6499ZM195.585 30.5186C193.973 29.9709 192.733 29.098 191.84 27.908L191.04 28.508C192.068 29.878 193.484 30.8611 195.264 31.4654L195.585 30.5186ZM191.844 27.9127C190.955 26.6982 190.501 25.2215 190.501 23.456H189.501C189.501 25.4025 190.006 27.0938 191.037 28.5033L191.844 27.9127ZM190.501 23.456V9.824H189.501V23.456H190.501ZM190.501 9.824C190.501 8.36347 190.819 7.0722 191.446 5.93784L190.571 5.45415C189.854 6.75179 189.501 8.21253 189.501 9.824H190.501ZM191.441 5.94652C192.109 4.79299 192.952 3.89333 193.968 3.23578L193.425 2.39621C192.265 3.14667 191.316 4.16701 190.576 5.44548L191.441 5.94652ZM193.964 3.23841C194.875 2.66117 196.014 2.166 197.39 1.75951L197.107 0.800489C195.667 1.226 194.438 1.75483 193.429 2.39359L193.964 3.23841ZM197.39 1.75951C198.771 1.35144 200.049 1.10322 201.224 1.01045L201.145 0.0135498C199.888 0.112773 198.542 0.376554 197.107 0.800489L197.39 1.75951ZM201.227 1.01017C202.332 0.915513 203.501 0.867998 204.736 0.867998V-0.132002C203.476 -0.132002 202.277 -0.0835161 201.142 0.0138254L201.227 1.01017ZM204.736 0.867998C206.195 0.867998 207.455 0.931477 208.518 1.05657L208.635 0.0634232C207.522 -0.0674801 206.222 -0.132002 204.736 -0.132002V0.867998ZM208.533 1.05806C209.586 1.15104 210.774 1.36898 212.098 1.71568L212.351 0.748312C210.987 0.391021 209.743 0.160956 208.62 0.0619335L208.533 1.05806ZM212.085 1.712C213.589 2.15094 214.805 2.67774 215.745 3.28415L216.288 2.44385C215.243 1.77026 213.932 1.20906 212.365 0.751999L212.085 1.712ZM215.745 3.28415C216.663 3.87626 217.443 4.71098 218.081 5.80394L218.944 5.30006C218.238 4.08902 217.354 3.13174 216.288 2.44385L215.745 3.28415ZM218.083 5.80754C218.732 6.89957 219.068 8.23121 219.068 9.824H220.068C220.068 8.08879 219.701 6.57243 218.942 5.29646L218.083 5.80754ZM219.068 9.824V23.456H220.068V9.824H219.068ZM219.068 23.456C219.068 25.0891 218.632 26.4695 217.775 27.6216L218.578 28.2184C219.577 26.8745 220.068 25.2789 220.068 23.456H219.068ZM217.77 27.6284C216.936 28.7899 215.769 29.6787 214.247 30.2878L214.618 31.2162C216.296 30.5453 217.625 29.5461 218.583 28.2116L217.77 27.6284ZM214.247 30.2878C211.434 31.4128 208.267 31.98 204.736 31.98V32.98C208.374 32.98 211.671 32.3952 214.618 31.2162L214.247 30.2878ZM204.833 27.652C205.897 27.652 206.793 27.6198 207.518 27.5539L207.427 26.5581C206.744 26.6202 205.88 26.652 204.833 26.652V27.652ZM207.537 27.5518C208.301 27.4522 209.078 27.2866 209.868 27.056L209.589 26.096C208.843 26.3134 208.116 26.4678 207.408 26.5602L207.537 27.5518ZM209.868 27.056C210.714 26.8094 211.393 26.3902 211.857 25.772L211.057 25.172C210.752 25.5778 210.279 25.8946 209.589 26.096L209.868 27.056ZM211.854 25.7757C212.347 25.1304 212.581 24.3466 212.581 23.456H211.581C211.581 24.1654 211.398 24.7256 211.059 25.1683L211.854 25.7757ZM212.581 23.456V9.776H211.581V23.456H212.581ZM212.581 9.776C212.581 8.97306 212.419 8.25554 212.071 7.64465C211.722 7.0309 211.201 6.55444 210.533 6.21122L210.076 7.10078C210.592 7.36556 210.959 7.7131 211.202 8.13935C211.446 8.56846 211.581 9.10694 211.581 9.776H212.581ZM210.542 6.21615C209.246 5.51567 207.304 5.196 204.785 5.196V6.196C207.257 6.196 208.995 6.51633 210.067 7.09585L210.542 6.21615ZM204.785 5.196C202.267 5.196 200.329 5.49943 199.036 6.16321L199.493 7.05278C200.568 6.50057 202.31 6.196 204.785 6.196V5.196ZM199.036 6.16321C198.366 6.50746 197.845 6.98931 197.496 7.6115C197.149 8.23023 196.988 8.95887 196.988 9.776H197.988C197.988 9.08913 198.124 8.53777 198.369 8.1005C198.612 7.66669 198.979 7.31653 199.493 7.05278L199.036 6.16321ZM196.988 9.776V23.456H197.988V9.776H196.988ZM196.988 23.456C196.988 24.3466 197.222 25.1304 197.715 25.7757L198.51 25.1683C198.171 24.7256 197.988 24.1654 197.988 23.456H196.988ZM197.724 25.7873C198.221 26.3982 198.928 26.8129 199.802 27.0575L200.071 26.0945C199.345 25.8911 198.836 25.5698 198.501 25.1567L197.724 25.7873ZM199.796 27.056C200.585 27.2861 201.346 27.4517 202.077 27.5514L202.212 26.5606C201.535 26.4683 200.824 26.3139 200.077 26.096L199.796 27.056ZM202.101 27.5541C202.856 27.6198 203.768 27.652 204.833 27.652V26.652C203.785 26.652 202.905 26.6202 202.188 26.5579L202.101 27.5541ZM225.594 0.847998V0.347998H225.094V0.847998H225.594ZM236.25 0.847998L236.723 0.685002L236.607 0.347998H236.25V0.847998ZM243.93 23.12L243.458 23.283L243.933 24.6624L244.404 23.2812L243.93 23.12ZM251.514 0.847998V0.347998H251.156L251.041 0.686827L251.514 0.847998ZM261.546 0.847998H262.046V0.347998H261.546V0.847998ZM261.546 32V32.5H262.046V32H261.546ZM254.778 32H254.278V32.5H254.778V32ZM254.778 8.96H255.278V8.46H254.778V8.96ZM254.634 8.96V8.46H254.277L254.161 8.79834L254.634 8.96ZM246.762 32V32.5H247.12L247.236 32.1617L246.762 32ZM240.762 32L240.291 32.166L240.408 32.5H240.762V32ZM232.65 8.96L233.122 8.79395L233.004 8.46H232.65V8.96ZM232.458 8.96V8.46H231.958V8.96H232.458ZM232.458 32V32.5H232.958V32H232.458ZM225.594 32H225.094V32.5H225.594V32ZM225.594 1.348H236.25V0.347998H225.594V1.348ZM235.778 1.01099L243.458 23.283L244.403 22.957L236.723 0.685002L235.778 1.01099ZM244.404 23.2812L251.988 1.00917L251.041 0.686827L243.457 22.9588L244.404 23.2812ZM251.514 1.348H261.546V0.347998H251.514V1.348ZM261.046 0.847998V32H262.046V0.847998H261.046ZM261.546 31.5H254.778V32.5H261.546V31.5ZM255.278 32V8.96H254.278V32H255.278ZM254.778 8.46H254.634V9.46H254.778V8.46ZM254.161 8.79834L246.289 31.8383L247.236 32.1617L255.108 9.12166L254.161 8.79834ZM246.762 31.5H240.762V32.5H246.762V31.5ZM241.234 31.834L233.122 8.79395L232.179 9.12605L240.291 32.166L241.234 31.834ZM232.65 8.46H232.458V9.46H232.65V8.46ZM231.958 8.96V32H232.958V8.96H231.958ZM232.458 31.5H225.594V32.5H232.458V31.5ZM226.094 32V0.847998H225.094V32H226.094ZM276.507 0.847998V0.347998H276.158L276.038 0.674576L276.507 0.847998ZM285.627 0.847998L286.097 0.678407L285.978 0.347998H285.627V0.847998ZM296.859 32V32.5H297.57L297.329 31.8304L296.859 32ZM289.275 32L288.801 32.1606L288.916 32.5H289.275V32ZM286.491 23.792L286.964 23.6314L286.849 23.292H286.491V23.792ZM275.115 23.792V23.292H274.754L274.64 23.6339L275.115 23.792ZM272.379 32V32.5H272.739L272.853 32.1581L272.379 32ZM264.987 32L264.518 31.8266L264.269 32.5H264.987V32ZM284.859 18.8V19.3H285.554L285.333 18.6407L284.859 18.8ZM280.923 7.088L281.397 6.92872L281.282 6.588H280.923V7.088ZM280.731 7.088V6.588H280.371L280.257 6.92872L280.731 7.088ZM276.795 18.8L276.321 18.6407L276.099 19.3H276.795V18.8ZM276.507 1.348H285.627V0.347998H276.507V1.348ZM285.156 1.01759L296.388 32.1696L297.329 31.8304L286.097 0.678407L285.156 1.01759ZM296.859 31.5H289.275V32.5H296.859V31.5ZM289.748 31.8394L286.964 23.6314L286.017 23.9526L288.801 32.1606L289.748 31.8394ZM286.491 23.292H275.115V24.292H286.491V23.292ZM274.64 23.6339L271.904 31.8419L272.853 32.1581L275.589 23.9501L274.64 23.6339ZM272.379 31.5H264.987V32.5H272.379V31.5ZM265.456 32.1734L276.976 1.02142L276.038 0.674576L264.518 31.8266L265.456 32.1734ZM285.333 18.6407L281.397 6.92872L280.449 7.24728L284.385 18.9593L285.333 18.6407ZM280.923 6.588H280.731V7.588H280.923V6.588ZM280.257 6.92872L276.321 18.6407L277.269 18.9593L281.205 7.24728L280.257 6.92872ZM276.795 19.3H284.859V18.3H276.795V19.3ZM300.313 0.847998V0.347998H299.813V0.847998H300.313ZM307.801 0.847998H308.301V0.347998H307.801V0.847998ZM307.801 13.328H307.301V13.828H307.801V13.328ZM321.049 13.328V13.828H321.549V13.328H321.049ZM321.049 0.847998V0.347998H320.549V0.847998H321.049ZM328.537 0.847998H329.037V0.347998H328.537V0.847998ZM328.537 32V32.5H329.037V32H328.537ZM321.049 32H320.549V32.5H321.049V32ZM321.049 18.656H321.549V18.156H321.049V18.656ZM307.801 18.656V18.156H307.301V18.656H307.801ZM307.801 32V32.5H308.301V32H307.801ZM300.313 32H299.813V32.5H300.313V32ZM300.313 1.348H307.801V0.347998H300.313V1.348ZM307.301 0.847998V13.328H308.301V0.847998H307.301ZM307.801 13.828H321.049V12.828H307.801V13.828ZM321.549 13.328V0.847998H320.549V13.328H321.549ZM321.049 1.348H328.537V0.347998H321.049V1.348ZM328.037 0.847998V32H329.037V0.847998H328.037ZM328.537 31.5H321.049V32.5H328.537V31.5ZM321.549 32V18.656H320.549V32H321.549ZM321.049 18.156H307.801V19.156H321.049V18.156ZM307.301 18.656V32H308.301V18.656H307.301ZM307.801 31.5H300.313V32.5H307.801V31.5ZM300.813 32V0.847998H299.813V32H300.813ZM332.595 26.672V26.172H332.095V26.672H332.595ZM336.435 25.184L336.047 24.8687L336.046 24.8701L336.435 25.184ZM338.355 19.616L337.862 19.5338L338.355 19.616ZM339.027 0.847998V0.347998H338.527V0.847998H339.027ZM361.683 0.847998H362.183V0.347998H361.683V0.847998ZM361.683 26.672H361.183V27.172H361.683V26.672ZM366.243 26.672H366.743V26.172H366.243V26.672ZM366.243 39.248V39.748H366.743V39.248H366.243ZM359.523 39.248H359.023V39.748H359.523V39.248ZM359.523 32H360.023V31.5H359.523V32ZM339.315 32V31.5H338.815V32H339.315ZM339.315 39.248V39.748H339.815V39.248H339.315ZM332.595 39.248H332.095V39.748H332.595V39.248ZM354.195 26.72V27.22H354.695V26.72H354.195ZM354.195 6.128H354.695V5.628H354.195V6.128ZM345.747 6.128V5.628H345.247V6.128H345.747ZM342.627 26.72L342.213 26.4397L341.685 27.22H342.627V26.72ZM332.595 27.172H333.267V26.172H332.595V27.172ZM333.267 27.172C334.725 27.172 335.926 26.6115 336.824 25.4979L336.046 24.8701C335.344 25.7405 334.433 26.172 333.267 26.172V27.172ZM336.823 25.4993C337.743 24.3675 338.398 22.3986 338.848 19.6982L337.862 19.5338C337.416 22.2094 336.791 23.9525 336.047 24.8687L336.823 25.4993ZM338.848 19.6982C339.303 16.9696 339.527 13.1293 339.527 8.192H338.527C338.527 13.1107 338.303 16.8864 337.862 19.5338L338.848 19.6982ZM339.527 8.192V0.847998H338.527V8.192H339.527ZM339.027 1.348H361.683V0.347998H339.027V1.348ZM361.183 0.847998V26.672H362.183V0.847998H361.183ZM361.683 27.172H366.243V26.172H361.683V27.172ZM365.743 26.672V39.248H366.743V26.672H365.743ZM366.243 38.748H359.523V39.748H366.243V38.748ZM360.023 39.248V32H359.023V39.248H360.023ZM359.523 31.5H339.315V32.5H359.523V31.5ZM338.815 32V39.248H339.815V32H338.815ZM339.315 38.748H332.595V39.748H339.315V38.748ZM333.095 39.248V26.672H332.095V39.248H333.095ZM354.695 26.72V6.128H353.695V26.72H354.695ZM354.195 5.628H345.747V6.628H354.195V5.628ZM345.247 6.128V9.968H346.247V6.128H345.247ZM345.247 9.968C345.247 18.0576 344.201 23.5037 342.213 26.4397L343.041 27.0003C345.213 23.7923 346.247 18.0704 346.247 9.968H345.247ZM342.627 27.22H354.195V26.22H342.627V27.22ZM378.928 0.847998V0.347998H378.58L378.46 0.674576L378.928 0.847998ZM388.048 0.847998L388.519 0.678407L388.4 0.347998H388.048V0.847998ZM399.28 32V32.5H399.992L399.751 31.8304L399.28 32ZM391.697 32L391.223 32.1606L391.338 32.5H391.697V32ZM388.913 23.792L389.386 23.6314L389.271 23.292H388.913V23.792ZM377.536 23.792V23.292H377.176L377.062 23.6339L377.536 23.792ZM374.801 32V32.5H375.161L375.275 32.1581L374.801 32ZM367.409 32L366.94 31.8266L366.691 32.5H367.409V32ZM387.28 18.8V19.3H387.976L387.754 18.6407L387.28 18.8ZM383.345 7.088L383.818 6.92872L383.704 6.588H383.345V7.088ZM383.152 7.088V6.588H382.793L382.679 6.92872L383.152 7.088ZM379.216 18.8L378.743 18.6407L378.521 19.3H379.216V18.8ZM378.928 1.348H388.048V0.347998H378.928V1.348ZM387.578 1.01759L398.81 32.1696L399.751 31.8304L388.519 0.678407L387.578 1.01759ZM399.28 31.5H391.697V32.5H399.28V31.5ZM392.17 31.8394L389.386 23.6314L388.439 23.9526L391.223 32.1606L392.17 31.8394ZM388.913 23.292H377.536V24.292H388.913V23.292ZM377.062 23.6339L374.326 31.8419L375.275 32.1581L378.011 23.9501L377.062 23.6339ZM374.801 31.5H367.409V32.5H374.801V31.5ZM367.877 32.1734L379.397 1.02142L378.46 0.674576L366.94 31.8266L367.877 32.1734ZM387.754 18.6407L383.818 6.92872L382.871 7.24728L386.807 18.9593L387.754 18.6407ZM383.345 6.588H383.152V7.588H383.345V6.588ZM382.679 6.92872L378.743 18.6407L379.69 18.9593L383.626 7.24728L382.679 6.92872ZM379.216 19.3H387.28V18.3H379.216V19.3Z" fill="#E4E5F1"/>
</svg>
