<svg width="329" height="160" viewBox="0 0 329 160" fill="none" xmlns="http://www.w3.org/2000/svg">
<mask id="mask0_377_1086" style="mask-type:alpha" maskUnits="userSpaceOnUse" x="0" y="0" width="329" height="160">
<rect width="329" height="160" fill="url(#paint0_linear_377_1086)"/>
</mask>
<g mask="url(#mask0_377_1086)">
<g opacity="0.7" filter="url(#filter0_f_377_1086)">
<path d="M213.907 9.232H217.011V30H213.907V9.232ZM222.376 9.232H226.12L237.416 26.384V9.232H240.136V30H236.392L225.096 12.56V30H222.376V9.232ZM250.621 11.408H243.581V9.232H260.765V11.408H253.757V30H250.621V11.408ZM264.219 9.232H271.003C271.963 9.232 272.731 9.25333 273.307 9.296C273.905 9.33867 274.534 9.43467 275.195 9.584C275.878 9.73333 276.422 9.95733 276.827 10.256C277.254 10.5547 277.617 10.96 277.915 11.472C278.193 11.9627 278.331 12.5813 278.331 13.328V17.648C278.331 19.376 277.659 20.624 276.315 21.392C274.993 22.1387 273.03 22.512 270.427 22.512H267.323V30H264.219V9.232ZM270.843 20.56C272.187 20.56 273.265 20.3147 274.075 19.824C274.886 19.3333 275.291 18.5547 275.291 17.488V13.712C275.291 13.136 275.142 12.6667 274.843 12.304C274.545 11.92 274.118 11.6533 273.563 11.504C273.03 11.376 272.582 11.2907 272.219 11.248C271.857 11.2053 271.377 11.184 270.779 11.184H267.291V20.56H270.843Z" fill="white"/>
<path d="M213.985 132.232H227.937V134.408H217.089V141.192H226.881V143.368H217.089V150.824H228.257V153H213.985V132.232ZM238.531 153.32C236.761 153.32 234.649 153.149 232.195 152.808V150.216C234.67 150.749 236.846 151.016 238.723 151.016C240.302 151.016 241.454 150.845 242.179 150.504C242.905 150.141 243.267 149.48 243.267 148.52V145.832C243.267 144.936 243.011 144.307 242.499 143.944C241.987 143.581 241.091 143.4 239.811 143.4H237.379C235.353 143.4 233.913 142.995 233.059 142.184C232.206 141.373 231.779 140.115 231.779 138.408V136.744C231.779 135.613 232.025 134.696 232.515 133.992C233.027 133.288 233.87 132.765 235.043 132.424C236.238 132.083 237.87 131.912 239.939 131.912C241.326 131.912 243.107 132.029 245.283 132.264V134.6C242.851 134.237 240.995 134.056 239.715 134.056C237.731 134.056 236.419 134.248 235.779 134.632C235.118 135.037 234.787 135.709 234.787 136.648V139.016C234.787 139.741 235.043 140.275 235.555 140.616C236.089 140.936 236.995 141.096 238.275 141.096H240.771C242.201 141.096 243.31 141.267 244.099 141.608C244.91 141.949 245.475 142.472 245.795 143.176C246.137 143.859 246.307 144.787 246.307 145.96V147.464C246.307 148.936 246.03 150.099 245.475 150.952C244.942 151.805 244.11 152.413 242.979 152.776C241.849 153.139 240.366 153.32 238.531 153.32ZM255.886 134.408H248.846V132.232H266.03V134.408H259.022V153H255.886V134.408ZM271.245 153.32C269.538 153.32 268.269 153.203 267.437 152.968V150.888C268.717 151.229 269.858 151.4 270.861 151.4C271.693 151.4 272.322 151.325 272.749 151.176C273.176 151.027 273.474 150.76 273.645 150.376C273.816 149.971 273.901 149.363 273.901 148.552V132.232H277.005V148.424C277.005 149.747 276.813 150.76 276.429 151.464C276.045 152.147 275.448 152.627 274.637 152.904C273.826 153.181 272.696 153.32 271.245 153.32Z" fill="white"/>
<path d="M2.938 71.232H6.042V92H2.938V71.232ZM17.3908 92.32C15.6201 92.32 13.5081 92.1493 11.0548 91.808V89.216C13.5294 89.7493 15.7054 90.016 17.5828 90.016C19.1614 90.016 20.3134 89.8453 21.0388 89.504C21.7641 89.1413 22.1268 88.48 22.1268 87.52V84.832C22.1268 83.936 21.8708 83.3067 21.3588 82.944C20.8468 82.5813 19.9508 82.4 18.6708 82.4H16.2388C14.2121 82.4 12.7721 81.9947 11.9188 81.184C11.0654 80.3733 10.6388 79.1147 10.6388 77.408V75.744C10.6388 74.6133 10.8841 73.696 11.3748 72.992C11.8868 72.288 12.7294 71.7653 13.9028 71.424C15.0974 71.0827 16.7294 70.912 18.7988 70.912C20.1854 70.912 21.9668 71.0293 24.1428 71.264V73.6C21.7108 73.2373 19.8548 73.056 18.5748 73.056C16.5908 73.056 15.2788 73.248 14.6388 73.632C13.9774 74.0373 13.6468 74.7093 13.6468 75.648V78.016C13.6468 78.7413 13.9028 79.2747 14.4148 79.616C14.9481 79.936 15.8548 80.096 17.1348 80.096H19.6308C21.0601 80.096 22.1694 80.2667 22.9588 80.608C23.7694 80.9493 24.3348 81.472 24.6548 82.176C24.9961 82.8587 25.1667 83.7867 25.1667 84.96V86.464C25.1667 87.936 24.8894 89.0987 24.3348 89.952C23.8014 90.8053 22.9694 91.4133 21.8388 91.776C20.7081 92.1387 19.2254 92.32 17.3908 92.32ZM29.6255 71.232H43.8975V73.408H32.7295V80.192H42.8415V82.368H32.7295V92H29.6255V71.232ZM49.2918 92.32C47.5851 92.32 46.3158 92.2027 45.4838 91.968V89.888C46.7638 90.2293 47.9051 90.4 48.9078 90.4C49.7398 90.4 50.3691 90.3253 50.7958 90.176C51.2224 90.0267 51.5211 89.76 51.6918 89.376C51.8624 88.9707 51.9478 88.3627 51.9478 87.552V71.232H55.0518V87.424C55.0518 88.7467 54.8598 89.76 54.4758 90.464C54.0918 91.1467 53.4944 91.6267 52.6838 91.904C51.8731 92.1813 50.7424 92.32 49.2918 92.32Z" fill="white"/>
<path d="M133.079 71.232H136.183V92H133.079V71.232ZM141.547 71.232H145.291L156.587 88.384V71.232H159.307V92H155.563L144.267 74.56V92H141.547V71.232ZM169.792 73.408H162.752V71.232H179.936V73.408H172.928V92H169.792V73.408ZM185.151 92.32C183.444 92.32 182.175 92.2027 181.343 91.968V89.888C182.623 90.2293 183.764 90.4 184.767 90.4C185.599 90.4 186.228 90.3253 186.655 90.176C187.082 90.0267 187.38 89.76 187.551 89.376C187.722 88.9707 187.807 88.3627 187.807 87.552V71.232H190.911V87.424C190.911 88.7467 190.719 89.76 190.335 90.464C189.951 91.1467 189.354 91.6267 188.543 91.904C187.732 92.1813 186.602 92.32 185.151 92.32Z" fill="white"/>
<path d="M69.813 9.232H72.917V30H69.813V9.232ZM78.2818 9.232H82.0258L93.3218 26.384V9.232H96.0418V30H92.2978L81.0018 12.56V30H78.2818V9.232ZM101.407 9.232H115.679V11.408H104.511V18.192H114.623V20.368H104.511V30H101.407V9.232ZM119.313 9.232H126.097C127.057 9.232 127.825 9.25333 128.401 9.296C128.998 9.33867 129.628 9.43467 130.289 9.584C130.972 9.73333 131.516 9.95733 131.921 10.256C132.348 10.5547 132.71 10.96 133.009 11.472C133.286 11.9627 133.425 12.5813 133.425 13.328V17.648C133.425 19.376 132.753 20.624 131.409 21.392C130.086 22.1387 128.124 22.512 125.521 22.512H122.417V30H119.313V9.232ZM125.937 20.56C127.281 20.56 128.358 20.3147 129.169 19.824C129.98 19.3333 130.385 18.5547 130.385 17.488V13.712C130.385 13.136 130.236 12.6667 129.937 12.304C129.638 11.92 129.212 11.6533 128.657 11.504C128.124 11.376 127.676 11.2907 127.313 11.248C126.95 11.2053 126.47 11.184 125.873 11.184H122.385V20.56H125.937Z" fill="white"/>
<path d="M268.985 71.232H272.089V92H268.985V71.232ZM277.454 71.232H281.198L292.494 88.384V71.232H295.214V92H291.47L280.174 74.56V92H277.454V71.232ZM300.579 71.232H314.851V73.408H303.683V80.192H313.795V82.368H303.683V92H300.579V71.232ZM320.245 92.32C318.538 92.32 317.269 92.2027 316.437 91.968V89.888C317.717 90.2293 318.858 90.4 319.861 90.4C320.693 90.4 321.322 90.3253 321.749 90.176C322.176 90.0267 322.474 89.76 322.645 89.376C322.816 88.9707 322.901 88.3627 322.901 87.552V71.232H326.005V87.424C326.005 88.7467 325.813 89.76 325.429 90.464C325.045 91.1467 324.448 91.6267 323.637 91.904C322.826 92.1813 321.696 92.32 320.245 92.32Z" fill="white"/>
<path d="M63.8599 132.232H77.8119V134.408H66.9639V141.192H76.7559V143.368H66.9639V150.824H78.1319V153H63.8599V132.232ZM82.4224 132.232H86.1664L97.4624 149.384V132.232H100.182V153H96.4384L85.1424 135.56V153H82.4224V132.232ZM110.667 134.408H103.627V132.232H120.811V134.408H113.803V153H110.667V134.408ZM124.266 132.232H131.05C132.01 132.232 132.778 132.253 133.354 132.296C133.951 132.339 134.581 132.435 135.242 132.584C135.925 132.733 136.469 132.957 136.874 133.256C137.301 133.555 137.663 133.96 137.962 134.472C138.239 134.963 138.378 135.581 138.378 136.328V140.648C138.378 142.376 137.706 143.624 136.362 144.392C135.039 145.139 133.077 145.512 130.474 145.512H127.37V153H124.266V132.232ZM130.89 143.56C132.234 143.56 133.311 143.315 134.122 142.824C134.933 142.333 135.338 141.555 135.338 140.488V136.712C135.338 136.136 135.189 135.667 134.89 135.304C134.591 134.92 134.165 134.653 133.61 134.504C133.077 134.376 132.629 134.291 132.266 134.248C131.903 134.205 131.423 134.184 130.826 134.184H127.338V143.56H130.89Z" fill="white"/>
<path d="M94 70L97 77L104 80L97 83L94 90L91 83L84 80L91 77L94 70Z" fill="url(#paint1_linear_377_1086)"/>
<path d="M230 70L233 77L240 80L233 83L230 90L227 83L220 80L227 77L230 70Z" fill="url(#paint2_linear_377_1086)"/>
<path d="M173 8L176 15L183 18L176 21L173 28L170 21L163 18L170 15L173 8Z" fill="url(#paint3_linear_377_1086)"/>
<path d="M318 8L321 15L328 18L321 21L318 28L315 21L308 18L315 15L318 8Z" fill="url(#paint4_linear_377_1086)"/>
<path d="M175 131L178 138L185 141L178 144L175 151L172 144L165 141L172 138L175 131Z" fill="url(#paint5_linear_377_1086)"/>
<path d="M318 131L321 138L328 141L321 144L318 151L315 144L308 141L315 138L318 131Z" fill="url(#paint6_linear_377_1086)"/>
</g>
</g>
<defs>
<filter id="filter0_f_377_1086" x="0.938477" y="6" width="329.062" height="149.32" filterUnits="userSpaceOnUse" color-interpolation-filters="sRGB">
<feFlood flood-opacity="0" result="BackgroundImageFix"/>
<feBlend mode="normal" in="SourceGraphic" in2="BackgroundImageFix" result="shape"/>
<feGaussianBlur stdDeviation="1" result="effect1_foregroundBlur_377_1086"/>
</filter>
<linearGradient id="paint0_linear_377_1086" x1="2.45124e-06" y1="80" x2="329" y2="80" gradientUnits="userSpaceOnUse">
<stop stop-opacity="0"/>
<stop offset="1"/>
</linearGradient>
<linearGradient id="paint1_linear_377_1086" x1="94" y1="70" x2="94" y2="90" gradientUnits="userSpaceOnUse">
<stop stop-color="#FF7FBC"/>
<stop offset="1" stop-color="#FFF596"/>
</linearGradient>
<linearGradient id="paint2_linear_377_1086" x1="230" y1="70" x2="230" y2="90" gradientUnits="userSpaceOnUse">
<stop stop-color="#FF7FBC"/>
<stop offset="1" stop-color="#FFF596"/>
</linearGradient>
<linearGradient id="paint3_linear_377_1086" x1="173" y1="8" x2="173" y2="28" gradientUnits="userSpaceOnUse">
<stop stop-color="#FF7FBC"/>
<stop offset="1" stop-color="#FFF596"/>
</linearGradient>
<linearGradient id="paint4_linear_377_1086" x1="318" y1="8" x2="318" y2="28" gradientUnits="userSpaceOnUse">
<stop stop-color="#FF7FBC"/>
<stop offset="1" stop-color="#FFF596"/>
</linearGradient>
<linearGradient id="paint5_linear_377_1086" x1="175" y1="131" x2="175" y2="151" gradientUnits="userSpaceOnUse">
<stop stop-color="#FF7FBC"/>
<stop offset="1" stop-color="#FFF596"/>
</linearGradient>
<linearGradient id="paint6_linear_377_1086" x1="318" y1="131" x2="318" y2="151" gradientUnits="userSpaceOnUse">
<stop stop-color="#FF7FBC"/>
<stop offset="1" stop-color="#FFF596"/>
</linearGradient>
</defs>
</svg>
