<svg width="30" height="30" viewBox="0 0 30 30" fill="none" xmlns="http://www.w3.org/2000/svg">
<path d="M7.99089 26.2084V10.1656C7.99089 9.36523 8.28191 8.68617 8.86397 8.12837C9.44602 7.57057 10.1372 7.29167 10.9375 7.29167H26.9076C27.7079 7.29167 28.3931 7.57663 28.963 8.14656C29.5329 8.71649 29.8179 9.40161 29.8179 10.2019V21.843L22.5422 29.1187H10.9012C10.1008 29.1187 9.4157 28.8337 8.84578 28.2638C8.27585 27.6938 7.99089 27.0087 7.99089 26.2084ZM0.751604 6.20032C0.60609 5.4 0.76373 4.67849 1.22452 4.03581C1.68531 3.39313 2.31587 2.99903 3.11619 2.85351L18.9044 0.0523848C19.7047 -0.0931285 20.4262 0.0645108 21.0689 0.525303C21.7116 0.986095 22.1057 1.61665 22.2512 2.41698L22.615 4.3814H19.6319L19.3773 2.92627L3.62549 5.7274L5.08062 13.9489V24.0984C4.69259 23.8802 4.35912 23.5892 4.08022 23.2254C3.80132 22.8616 3.62549 22.4493 3.55273 21.9885L0.751604 6.20032ZM10.9012 10.2019V26.2084H21.0871L26.9076 20.3879V10.2019H10.9012ZM17.4492 24.0257H20.3595V19.6603H24.7249V16.75H20.3595V12.3846H17.4492V16.75H13.0839V19.6603H17.4492V24.0257Z" fill="#D7D3E3"/>
</svg>
