<svg width="34" height="34" viewBox="0 0 34 34" fill="none" xmlns="http://www.w3.org/2000/svg">
<path d="M4.125 33.1251C3.23125 33.1251 2.46615 32.8069 1.82969 32.1704C1.19323 31.5339 0.875 30.7688 0.875 29.8751V7.1251C0.875 6.23135 1.19323 5.46624 1.82969 4.82978C2.46615 4.19333 3.23125 3.8751 4.125 3.8751H18.6281L15.3781 7.1251H4.125V29.8751H26.875V18.5813L30.125 15.3313V29.8751C30.125 30.7688 29.8068 31.5339 29.1703 32.1704C28.5339 32.8069 27.7687 33.1251 26.875 33.1251H4.125ZM10.625 23.3751V16.4688L25.5344 1.55947C25.8594 1.23447 26.225 0.990723 26.6313 0.828223C27.0375 0.665723 27.4438 0.584473 27.85 0.584473C28.2833 0.584473 28.6964 0.665723 29.0891 0.828223C29.4818 0.990723 29.8406 1.23447 30.1656 1.55947L32.4406 3.8751C32.7385 4.2001 32.9688 4.55895 33.1313 4.95166C33.2938 5.34437 33.375 5.74385 33.375 6.1501C33.375 6.55635 33.3005 6.95583 33.1516 7.34853C33.0026 7.74124 32.7656 8.1001 32.4406 8.4251L17.5312 23.3751H10.625ZM13.875 20.1251H16.15L25.575 10.7001L24.4375 9.5626L23.2594 8.4251L13.875 17.8095V20.1251Z" fill="#D7D3E3"/>
</svg>
