<svg width="12" height="12" viewBox="0 0 12 12" fill="none" xmlns="http://www.w3.org/2000/svg">
<path fill-rule="evenodd" clip-rule="evenodd" d="M0.853553 0.146447C0.658291 -0.0488155 0.341709 -0.0488155 0.146447 0.146447C-0.0488155 0.341709 -0.0488155 0.658291 0.146447 0.853553L5.09619 5.8033L0.146447 10.753C-0.0488155 10.9483 -0.0488155 11.2649 0.146447 11.4602C0.341709 11.6554 0.658291 11.6554 0.853553 11.4602L5.8033 6.51041L10.753 11.4602C10.9483 11.6554 11.2649 11.6554 11.4602 11.4602C11.6554 11.2649 11.6554 10.9483 11.4602 10.753L6.51041 5.8033L11.4602 0.853554C11.6554 0.658292 11.6554 0.341709 11.4602 0.146447C11.2649 -0.0488154 10.9483 -0.0488152 10.753 0.146447L5.8033 5.09619L0.853553 0.146447Z" fill="#D7D3E3"/>
</svg>
