<svg width="40" height="40" viewBox="0 0 40 40" fill="none" xmlns="http://www.w3.org/2000/svg">
<rect width="40" height="40" rx="20" fill="#988BCD"/>
<path d="M12.2929 26.2929C11.9024 26.6834 11.9024 27.3166 12.2929 27.7071C12.6834 28.0976 13.3166 28.0976 13.7071 27.7071L12.2929 26.2929ZM28.1421 12.8579C28.1421 12.3056 27.6944 11.8579 27.1421 11.8579L18.1421 11.8579C17.5899 11.8579 17.1421 12.3056 17.1421 12.8579C17.1421 13.4101 17.5899 13.8579 18.1421 13.8579L26.1421 13.8579L26.1421 21.8579C26.1421 22.4101 26.5899 22.8579 27.1421 22.8579C27.6944 22.8579 28.1421 22.4101 28.1421 21.8579L28.1421 12.8579ZM13 27L13.7071 27.7071L27.8492 13.565L27.1421 12.8579L26.435 12.1508L12.2929 26.2929L13 27Z" fill="white"/>
</svg>
