<svg width="260" height="33" viewBox="0 0 260 33" fill="none" xmlns="http://www.w3.org/2000/svg">
<path d="M19.3031 20.096H19.8031V19.2411L19.0579 19.6602L19.3031 20.096ZM3.46306 20.24L3.15849 20.6367L3.16646 20.6425L3.46306 20.24ZM0.775063 0.847998V0.347998H0.275063V0.847998H0.775063ZM8.16706 0.847998H8.66706V0.347998H8.16706V0.847998ZM9.27106 15.824L8.97387 16.2261L8.98362 16.2333L8.99371 16.24L9.27106 15.824ZM16.1831 15.968L16.0285 15.4925L16.1831 15.968ZM19.3031 14.384L19.6154 14.7744L19.8031 14.6243V14.384H19.3031ZM19.3031 0.847998V0.347998H18.8031V0.847998H19.3031ZM26.7911 0.847998H27.2911V0.347998H26.7911V0.847998ZM26.7911 32V32.5H27.2911V32H26.7911ZM19.3031 32H18.8031V32.5H19.3031V32ZM19.0579 19.6602C16.587 21.0501 13.6191 21.756 10.1351 21.756V22.756C13.755 22.756 16.8992 22.0219 19.5482 20.5318L19.0579 19.6602ZM10.1351 21.756C7.60028 21.756 5.48463 21.1085 3.75966 19.8375L3.16646 20.6425C5.08949 22.0595 7.42184 22.756 10.1351 22.756V21.756ZM3.76758 19.8434C2.14669 18.5988 1.27506 16.461 1.27506 13.28H0.275063C0.275063 16.627 1.19544 19.1292 3.15855 20.6366L3.76758 19.8434ZM1.27506 13.28V0.847998H0.275063V13.28H1.27506ZM0.775063 1.348H8.16706V0.347998H0.775063V1.348ZM7.66706 0.847998V12.704H8.66706V0.847998H7.66706ZM7.66706 12.704C7.66706 14.2921 8.04383 15.5387 8.97387 16.2261L9.56826 15.4219C9.02629 15.0213 8.66706 14.1879 8.66706 12.704H7.66706ZM8.99371 16.24C9.86622 16.8217 10.9632 17.092 12.2471 17.092V16.092C11.0989 16.092 10.2119 15.8503 9.54841 15.408L8.99371 16.24ZM12.2471 17.092C13.6436 17.092 15.0078 16.8757 16.3376 16.4435L16.0285 15.4925C14.7984 15.8923 13.5385 16.092 12.2471 16.092V17.092ZM16.3376 16.4435C17.6579 16.0144 18.7562 15.4618 19.6154 14.7744L18.9907 13.9936C18.2499 14.5862 17.2682 15.0896 16.0285 15.4925L16.3376 16.4435ZM19.8031 14.384V0.847998H18.8031V14.384H19.8031ZM19.3031 1.348H26.7911V0.347998H19.3031V1.348ZM26.2911 0.847998V32H27.2911V0.847998H26.2911ZM26.7911 31.5H19.3031V32.5H26.7911V31.5ZM19.8031 32V20.096H18.8031V32H19.8031ZM40.7084 6.176H41.2084V5.676H40.7084V6.176ZM31.1084 6.176H30.6084V6.676H31.1084V6.176ZM31.1084 0.847998V0.347998H30.6084V0.847998H31.1084ZM57.7484 0.847998H58.2484V0.347998H57.7484V0.847998ZM57.7484 6.176V6.676H58.2484V6.176H57.7484ZM48.1964 6.176V5.676H47.6964V6.176H48.1964ZM48.1964 32V32.5H48.6964V32H48.1964ZM40.7084 32H40.2084V32.5H40.7084V32ZM40.7084 5.676H31.1084V6.676H40.7084V5.676ZM31.6084 6.176V0.847998H30.6084V6.176H31.6084ZM31.1084 1.348H57.7484V0.347998H31.1084V1.348ZM57.2484 0.847998V6.176H58.2484V0.847998H57.2484ZM57.7484 5.676H48.1964V6.676H57.7484V5.676ZM47.6964 6.176V32H48.6964V6.176H47.6964ZM48.1964 31.5H40.7084V32.5H48.1964V31.5ZM41.2084 32V6.176H40.2084V32H41.2084ZM71.3193 32.144L71.2425 32.6381L71.2441 32.6383L71.3193 32.144ZM66.8073 30.992L66.9712 30.5196L66.9681 30.5186L66.8073 30.992ZM62.8233 28.208L62.4198 28.5033L62.4233 28.508L62.8233 28.208ZM62.3913 5.696L61.9585 5.44543L61.9537 5.45415L62.3913 5.696ZM65.0793 2.816L64.8118 2.39357L64.8077 2.39621L65.0793 2.816ZM68.6313 1.28L68.773 1.75951L68.6313 1.28ZM72.5673 0.511999L72.6067 1.01046L72.61 1.01017L72.5673 0.511999ZM79.9593 0.559999L79.9009 1.05657L79.9081 1.05742L79.9154 1.05806L79.9593 0.559999ZM83.6073 1.232L83.7474 0.751815L83.734 0.748312L83.6073 1.232ZM87.3993 2.864L87.6704 2.44385V2.44385L87.3993 2.864ZM89.8953 5.552L89.4634 5.80394L89.4655 5.80754L89.8953 5.552ZM89.5593 27.92L89.158 27.6216L89.1532 27.6284L89.5593 27.92ZM85.8153 30.752L85.6296 30.2878L85.8153 30.752ZM78.8553 27.056L78.9006 27.5539L78.9103 27.5531L78.92 27.5518L78.8553 27.056ZM81.1113 26.576L80.9713 26.096L81.1113 26.576ZM82.8393 25.472L82.4421 25.1683L82.4393 25.172L82.8393 25.472ZM81.6873 6.656L81.4495 7.09595L81.4589 7.10078L81.6873 6.656ZM69.4953 25.472L69.0981 25.7757L69.1026 25.7816L69.1073 25.7873L69.4953 25.472ZM71.3193 26.576L71.4593 26.096L71.4541 26.0945L71.3193 26.576ZM73.5273 27.056L73.4598 27.5514L73.4718 27.5531L73.484 27.5541L73.5273 27.056ZM76.1193 31.98C74.4126 31.98 72.8381 31.8694 71.3945 31.6497L71.2441 32.6383C72.7446 32.8666 74.37 32.98 76.1193 32.98V31.98ZM71.3962 31.6499C69.9895 31.4311 68.5147 31.0551 66.9712 30.5196L66.6434 31.4644C68.2359 32.0169 69.7691 32.4089 71.2425 32.6381L71.3962 31.6499ZM66.9681 30.5186C65.3557 29.9709 64.1158 29.098 63.2233 27.908L62.4233 28.508C63.4509 29.878 64.867 30.8611 66.6465 31.4654L66.9681 30.5186ZM63.2268 27.9127C62.3382 26.6982 61.8833 25.2215 61.8833 23.456H60.8833C60.8833 25.4025 61.3885 27.0938 62.4198 28.5033L63.2268 27.9127ZM61.8833 23.456V9.824H60.8833V23.456H61.8833ZM61.8833 9.824C61.8833 8.36347 62.202 7.0722 62.8289 5.93784L61.9537 5.45415C61.2366 6.75179 60.8833 8.21253 60.8833 9.824H61.8833ZM62.824 5.94652C63.4919 4.79299 64.3347 3.89333 65.3509 3.23578L64.8077 2.39621C63.6479 3.14667 62.6988 4.16701 61.9586 5.44548L62.824 5.94652ZM65.3468 3.23841C66.2583 2.66117 67.3972 2.166 68.773 1.75951L68.4896 0.800489C67.0495 1.226 65.8204 1.75483 64.8118 2.39359L65.3468 3.23841ZM68.773 1.75951C70.1541 1.35144 71.4315 1.10322 72.6067 1.01045L72.528 0.0135498C71.2711 0.112773 69.9245 0.376554 68.4896 0.800489L68.773 1.75951ZM72.61 1.01017C73.7144 0.915513 74.884 0.867998 76.1193 0.867998V-0.132002C74.8586 -0.132002 73.6603 -0.0835161 72.5246 0.0138254L72.61 1.01017ZM76.1193 0.867998C77.5779 0.867998 78.8376 0.931477 79.9009 1.05657L80.0177 0.0634232C78.9051 -0.0674801 77.6047 -0.132002 76.1193 -0.132002V0.867998ZM79.9154 1.05806C80.9691 1.15104 82.1568 1.36898 83.4806 1.71568L83.734 0.748312C82.3698 0.391021 81.1255 0.160956 80.0033 0.0619335L79.9154 1.05806ZM83.4673 1.712C84.9722 2.15094 86.1883 2.67774 87.1283 3.28415L87.6704 2.44385C86.6263 1.77026 85.3144 1.20906 83.7473 0.751999L83.4673 1.712ZM87.1283 3.28415C88.046 3.87626 88.8259 4.71098 89.4634 5.80394L90.3272 5.30006C89.6208 4.08902 88.7366 3.13174 87.6704 2.44385L87.1283 3.28415ZM89.4655 5.80754C90.1149 6.89957 90.4513 8.23121 90.4513 9.824H91.4513C91.4513 8.08879 91.0838 6.57243 90.3251 5.29646L89.4655 5.80754ZM90.4513 9.824V23.456H91.4513V9.824H90.4513ZM90.4513 23.456C90.4513 25.0891 90.0148 26.4695 89.1581 27.6216L89.9605 28.2184C90.9598 26.8745 91.4513 25.2789 91.4513 23.456H90.4513ZM89.1532 27.6284C88.3193 28.7899 87.1523 29.6787 85.6296 30.2878L86.001 31.2162C87.6783 30.5453 89.0073 29.5461 89.9655 28.2116L89.1532 27.6284ZM85.6296 30.2878C82.8171 31.4128 79.6495 31.98 76.1193 31.98V32.98C79.7572 32.98 83.0535 32.3952 86.001 31.2162L85.6296 30.2878ZM76.2153 27.652C77.2798 27.652 78.1762 27.6198 78.9006 27.5539L78.81 26.5581C78.1265 26.6202 77.2628 26.652 76.2153 26.652V27.652ZM78.92 27.5518C79.6833 27.4522 80.4605 27.2866 81.2513 27.056L80.9713 26.096C80.2261 26.3134 79.4993 26.4678 78.7906 26.5602L78.92 27.5518ZM81.2513 27.056C82.0968 26.8094 82.7757 26.3902 83.2393 25.772L82.4393 25.172C82.135 25.5778 81.6618 25.8946 80.9713 26.096L81.2513 27.056ZM83.2365 25.7757C83.73 25.1304 83.9633 24.3466 83.9633 23.456H82.9633C82.9633 24.1654 82.7807 24.7256 82.4421 25.1683L83.2365 25.7757ZM83.9633 23.456V9.776H82.9633V23.456H83.9633ZM83.9633 9.776C83.9633 8.97306 83.8016 8.25554 83.4538 7.64465C83.1045 7.0309 82.5841 6.55444 81.9157 6.21122L81.4589 7.10078C81.9745 7.36556 82.3421 7.7131 82.5848 8.13935C82.829 8.56846 82.9633 9.10694 82.9633 9.776H83.9633ZM81.9251 6.21615C80.6292 5.51567 78.6866 5.196 76.1673 5.196V6.196C78.64 6.196 80.3774 6.51633 81.4496 7.09585L81.9251 6.21615ZM76.1673 5.196C73.6499 5.196 71.7115 5.49943 70.4189 6.16321L70.8757 7.05278C71.9511 6.50057 73.6928 6.196 76.1673 6.196V5.196ZM70.4189 6.16321C69.7485 6.50746 69.228 6.98931 68.8792 7.6115C68.5323 8.23023 68.3713 8.95887 68.3713 9.776H69.3713C69.3713 9.08913 69.5063 8.53777 69.7514 8.1005C69.9947 7.66669 70.3621 7.31653 70.8757 7.05278L70.4189 6.16321ZM68.3713 9.776V23.456H69.3713V9.776H68.3713ZM68.3713 23.456C68.3713 24.3466 68.6047 25.1304 69.0981 25.7757L69.8925 25.1683C69.554 24.7256 69.3713 24.1654 69.3713 23.456H68.3713ZM69.1073 25.7873C69.6036 26.3982 70.3109 26.8129 71.1845 27.0575L71.4541 26.0945C70.7277 25.8911 70.219 25.5698 69.8834 25.1567L69.1073 25.7873ZM71.1793 27.056C71.9681 27.2861 72.7284 27.4517 73.4598 27.5514L73.5949 26.5606C72.9182 26.4683 72.2065 26.3139 71.4593 26.096L71.1793 27.056ZM73.484 27.5541C74.2391 27.6198 75.1504 27.652 76.2153 27.652V26.652C75.1682 26.652 74.2876 26.6202 73.5706 26.5579L73.484 27.5541ZM115.24 6.176H115.74V5.676H115.24V6.176ZM105.64 6.176H105.14V6.676H105.64V6.176ZM105.64 0.847998V0.347998H105.14V0.847998H105.64ZM132.28 0.847998H132.78V0.347998H132.28V0.847998ZM132.28 6.176V6.676H132.78V6.176H132.28ZM122.728 6.176V5.676H122.228V6.176H122.728ZM122.728 32V32.5H123.228V32H122.728ZM115.24 32H114.74V32.5H115.24V32ZM115.24 5.676H105.64V6.676H115.24V5.676ZM106.14 6.176V0.847998H105.14V6.176H106.14ZM105.64 1.348H132.28V0.347998H105.64V1.348ZM131.78 0.847998V6.176H132.78V0.847998H131.78ZM132.28 5.676H122.728V6.676H132.28V5.676ZM122.228 6.176V32H123.228V6.176H122.228ZM122.728 31.5H115.24V32.5H122.728V31.5ZM115.74 32V6.176H114.74V32H115.74ZM144.843 0.847998V0.347998H144.494L144.374 0.674576L144.843 0.847998ZM153.963 0.847998L154.433 0.678407L154.314 0.347998H153.963V0.847998ZM165.195 32V32.5H165.906L165.665 31.8304L165.195 32ZM157.611 32L157.137 32.1606L157.252 32.5H157.611V32ZM154.827 23.792L155.3 23.6314L155.185 23.292H154.827V23.792ZM143.451 23.792V23.292H143.09L142.976 23.6339L143.451 23.792ZM140.715 32V32.5H141.075L141.189 32.1581L140.715 32ZM133.323 32L132.854 31.8266L132.605 32.5H133.323V32ZM153.195 18.8V19.3H153.89L153.669 18.6407L153.195 18.8ZM149.259 7.088L149.733 6.92872L149.618 6.588H149.259V7.088ZM149.067 7.088V6.588H148.707L148.593 6.92872L149.067 7.088ZM145.131 18.8L144.657 18.6407L144.435 19.3H145.131V18.8ZM144.843 1.348H153.963V0.347998H144.843V1.348ZM153.492 1.01759L164.724 32.1696L165.665 31.8304L154.433 0.678407L153.492 1.01759ZM165.195 31.5H157.611V32.5H165.195V31.5ZM158.084 31.8394L155.3 23.6314L154.353 23.9526L157.137 32.1606L158.084 31.8394ZM154.827 23.292H143.451V24.292H154.827V23.292ZM142.976 23.6339L140.24 31.8419L141.189 32.1581L143.925 23.9501L142.976 23.6339ZM140.715 31.5H133.323V32.5H140.715V31.5ZM133.792 32.1734L145.312 1.02142L144.374 0.674576L132.854 31.8266L133.792 32.1734ZM153.669 18.6407L149.733 6.92872L148.785 7.24728L152.721 18.9593L153.669 18.6407ZM149.259 6.588H149.067V7.588H149.259V6.588ZM148.593 6.92872L144.657 18.6407L145.605 18.9593L149.541 7.24728L148.593 6.92872ZM145.131 19.3H153.195V18.3H145.131V19.3ZM168.649 0.847998V0.347998H168.149V0.847998H168.649ZM176.137 0.847998H176.637V0.347998H176.137V0.847998ZM176.137 13.136H175.637V13.636H176.137V13.136ZM179.545 12.368L179.8 12.7983L179.811 12.7911L179.545 12.368ZM182.377 9.296L181.966 9.01114L181.964 9.0146L182.377 9.296ZM188.233 0.847998V0.347998H187.971L187.822 0.563149L188.233 0.847998ZM196.633 0.847998L197.039 1.1396L197.608 0.347998H196.633V0.847998ZM189.913 10.208L189.507 9.91639L189.506 9.91824L189.913 10.208ZM187.081 13.52L187.412 13.8945L187.413 13.8937L187.081 13.52ZM183.961 15.344L183.782 14.8773L183.461 15.0006V15.344H183.961ZM183.961 15.44H183.461V15.8342L183.844 15.9262L183.961 15.44ZM187.945 17.504L187.603 17.8685L187.608 17.8735L187.945 17.504ZM191.113 21.824L190.674 22.0624L190.674 22.0624L191.113 21.824ZM196.633 32V32.5H197.473L197.073 31.7616L196.633 32ZM188.233 32L187.796 32.2426L187.939 32.5H188.233V32ZM183.145 22.832L182.707 23.0738L182.708 23.0746L183.145 22.832ZM181.177 20.096L180.815 20.4404L180.823 20.4497L180.833 20.4585L181.177 20.096ZM179.113 18.8L179.253 18.32L179.113 18.8ZM176.137 18.464V17.964H175.637V18.464H176.137ZM176.137 32V32.5H176.637V32H176.137ZM168.649 32H168.149V32.5H168.649V32ZM168.649 1.348H176.137V0.347998H168.649V1.348ZM175.637 0.847998V13.136H176.637V0.847998H175.637ZM176.137 13.636C177.6 13.636 178.834 13.3707 179.8 12.7981L179.29 11.9379C178.528 12.3893 177.49 12.636 176.137 12.636V13.636ZM179.811 12.7911C180.763 12.1922 181.753 11.1007 182.79 9.57739L181.964 9.0146C180.953 10.4993 180.055 11.4558 179.279 11.9449L179.811 12.7911ZM182.788 9.58085L188.644 1.13285L187.822 0.563149L181.966 9.01115L182.788 9.58085ZM188.233 1.348H196.633V0.347998H188.233V1.348ZM196.227 0.556395L189.507 9.9164L190.319 10.4996L197.039 1.1396L196.227 0.556395ZM189.506 9.91824C188.493 11.3418 187.574 12.4128 186.749 13.1463L187.413 13.8937C188.316 13.0912 189.285 11.9542 190.321 10.4978L189.506 9.91824ZM186.75 13.1455C185.971 13.8348 184.985 14.4145 183.782 14.8773L184.141 15.8107C185.433 15.3135 186.528 14.6772 187.412 13.8945L186.75 13.1455ZM183.461 15.344V15.44H184.461V15.344H183.461ZM183.844 15.9262C185.372 16.2927 186.618 16.9436 187.603 17.8684L188.287 17.1396C187.16 16.0804 185.751 15.3553 184.078 14.9538L183.844 15.9262ZM187.608 17.8735C188.641 18.8148 189.665 20.203 190.674 22.0624L191.553 21.5856C190.513 19.6689 189.426 18.1772 188.282 17.1345L187.608 17.8735ZM190.674 22.0624L196.194 32.2384L197.073 31.7616L191.553 21.5856L190.674 22.0624ZM196.633 31.5H188.233V32.5H196.633V31.5ZM188.67 31.7574L183.582 22.5894L182.708 23.0746L187.796 32.2426L188.67 31.7574ZM183.583 22.5902C182.898 21.352 182.213 20.3909 181.521 19.7335L180.833 20.4585C181.421 21.0171 182.048 21.88 182.707 23.0738L183.583 22.5902ZM181.54 19.7516C180.877 19.0544 180.115 18.5713 179.253 18.32L178.973 19.28C179.648 19.4767 180.261 19.8576 180.815 20.4404L181.54 19.7516ZM179.253 18.32C178.423 18.0778 177.379 17.964 176.137 17.964V18.964C177.328 18.964 178.268 19.0742 178.973 19.28L179.253 18.32ZM175.637 18.464V32H176.637V18.464H175.637ZM176.137 31.5H168.649V32.5H176.137V31.5ZM169.149 32V0.847998H168.149V32H169.149ZM209.366 32.144L209.289 32.6381L209.291 32.6383L209.366 32.144ZM204.854 30.992L205.018 30.5196L205.015 30.5186L204.854 30.992ZM200.87 28.208L200.467 28.5033L200.47 28.508L200.87 28.208ZM200.438 5.696L200.005 5.44543L200.001 5.45415L200.438 5.696ZM203.126 2.816L202.859 2.39357L202.855 2.39621L203.126 2.816ZM206.678 1.28L206.82 1.75951L206.678 1.28ZM210.614 0.511999L210.654 1.01046L210.657 1.01017L210.614 0.511999ZM218.006 0.559999L217.948 1.05657L217.955 1.05742L217.962 1.05806L218.006 0.559999ZM221.654 1.232L221.794 0.751815L221.781 0.748312L221.654 1.232ZM225.446 2.864L225.717 2.44385V2.44385L225.446 2.864ZM227.942 5.552L227.51 5.80394L227.512 5.80754L227.942 5.552ZM227.606 27.92L227.205 27.6216L227.2 27.6284L227.606 27.92ZM223.862 30.752L223.676 30.2878L223.862 30.752ZM216.902 27.056L216.947 27.5539L216.957 27.5531L216.967 27.5518L216.902 27.056ZM219.158 26.576L219.018 26.096L219.158 26.576ZM220.886 25.472L220.489 25.1683L220.486 25.172L220.886 25.472ZM219.734 6.656L219.496 7.09595L219.506 7.10078L219.734 6.656ZM207.542 25.472L207.145 25.7757L207.149 25.7816L207.154 25.7873L207.542 25.472ZM209.366 26.576L209.506 26.096L209.501 26.0945L209.366 26.576ZM211.574 27.056L211.507 27.5514L211.519 27.5531L211.531 27.5541L211.574 27.056ZM214.166 31.98C212.459 31.98 210.885 31.8694 209.441 31.6497L209.291 32.6383C210.791 32.8666 212.417 32.98 214.166 32.98V31.98ZM209.443 31.6499C208.036 31.4311 206.562 31.0551 205.018 30.5196L204.69 31.4644C206.283 32.0169 207.816 32.4089 209.289 32.6381L209.443 31.6499ZM205.015 30.5186C203.403 29.9709 202.163 29.098 201.27 27.908L200.47 28.508C201.498 29.878 202.914 30.8611 204.693 31.4654L205.015 30.5186ZM201.274 27.9127C200.385 26.6982 199.93 25.2215 199.93 23.456H198.93C198.93 25.4025 199.435 27.0938 200.467 28.5033L201.274 27.9127ZM199.93 23.456V9.824H198.93V23.456H199.93ZM199.93 9.824C199.93 8.36347 200.249 7.0722 200.876 5.93784L200.001 5.45415C199.283 6.75179 198.93 8.21253 198.93 9.824H199.93ZM200.871 5.94652C201.539 4.79299 202.382 3.89333 203.398 3.23578L202.855 2.39621C201.695 3.14667 200.746 4.16701 200.005 5.44548L200.871 5.94652ZM203.394 3.23841C204.305 2.66117 205.444 2.166 206.82 1.75951L206.537 0.800489C205.096 1.226 203.867 1.75483 202.859 2.39359L203.394 3.23841ZM206.82 1.75951C208.201 1.35144 209.478 1.10322 210.654 1.01045L210.575 0.0135498C209.318 0.112773 207.971 0.376554 206.537 0.800489L206.82 1.75951ZM210.657 1.01017C211.761 0.915513 212.931 0.867998 214.166 0.867998V-0.132002C212.905 -0.132002 211.707 -0.0835161 210.571 0.0138254L210.657 1.01017ZM214.166 0.867998C215.625 0.867998 216.884 0.931477 217.948 1.05657L218.065 0.0634232C216.952 -0.0674801 215.652 -0.132002 214.166 -0.132002V0.867998ZM217.962 1.05806C219.016 1.15104 220.204 1.36898 221.528 1.71568L221.781 0.748312C220.417 0.391021 219.172 0.160956 218.05 0.0619335L217.962 1.05806ZM221.514 1.712C223.019 2.15094 224.235 2.67774 225.175 3.28415L225.717 2.44385C224.673 1.77026 223.361 1.20906 221.794 0.751999L221.514 1.712ZM225.175 3.28415C226.093 3.87626 226.873 4.71098 227.51 5.80394L228.374 5.30006C227.668 4.08902 226.783 3.13174 225.717 2.44385L225.175 3.28415ZM227.512 5.80754C228.162 6.89957 228.498 8.23121 228.498 9.824H229.498C229.498 8.08879 229.131 6.57243 228.372 5.29646L227.512 5.80754ZM228.498 9.824V23.456H229.498V9.824H228.498ZM228.498 23.456C228.498 25.0891 228.062 26.4695 227.205 27.6216L228.007 28.2184C229.007 26.8745 229.498 25.2789 229.498 23.456H228.498ZM227.2 27.6284C226.366 28.7899 225.199 29.6787 223.676 30.2878L224.048 31.2162C225.725 30.5453 227.054 29.5461 228.012 28.2116L227.2 27.6284ZM223.676 30.2878C220.864 31.4128 217.696 31.98 214.166 31.98V32.98C217.804 32.98 221.1 32.3952 224.048 31.2162L223.676 30.2878ZM214.262 27.652C215.327 27.652 216.223 27.6198 216.947 27.5539L216.857 26.5581C216.173 26.6202 215.31 26.652 214.262 26.652V27.652ZM216.967 27.5518C217.73 27.4522 218.507 27.2866 219.298 27.056L219.018 26.096C218.273 26.3134 217.546 26.4678 216.838 26.5602L216.967 27.5518ZM219.298 27.056C220.144 26.8094 220.823 26.3902 221.286 25.772L220.486 25.172C220.182 25.5778 219.709 25.8946 219.018 26.096L219.298 27.056ZM221.283 25.7757C221.777 25.1304 222.01 24.3466 222.01 23.456H221.01C221.01 24.1654 220.828 24.7256 220.489 25.1683L221.283 25.7757ZM222.01 23.456V9.776H221.01V23.456H222.01ZM222.01 9.776C222.01 8.97306 221.848 8.25554 221.501 7.64465C221.151 7.0309 220.631 6.55444 219.963 6.21122L219.506 7.10078C220.021 7.36556 220.389 7.7131 220.632 8.13935C220.876 8.56846 221.01 9.10694 221.01 9.776H222.01ZM219.972 6.21615C218.676 5.51567 216.734 5.196 214.214 5.196V6.196C216.687 6.196 218.424 6.51633 219.496 7.09585L219.972 6.21615ZM214.214 5.196C211.697 5.196 209.758 5.49943 208.466 6.16321L208.923 7.05278C209.998 6.50057 211.74 6.196 214.214 6.196V5.196ZM208.466 6.16321C207.795 6.50746 207.275 6.98931 206.926 7.6115C206.579 8.23023 206.418 8.95887 206.418 9.776H207.418C207.418 9.08913 207.553 8.53777 207.798 8.1005C208.042 7.66669 208.409 7.31653 208.923 7.05278L208.466 6.16321ZM206.418 9.776V23.456H207.418V9.776H206.418ZM206.418 23.456C206.418 24.3466 206.652 25.1304 207.145 25.7757L207.939 25.1683C207.601 24.7256 207.418 24.1654 207.418 23.456H206.418ZM207.154 25.7873C207.65 26.3982 208.358 26.8129 209.231 27.0575L209.501 26.0945C208.775 25.8911 208.266 25.5698 207.93 25.1567L207.154 25.7873ZM209.226 27.056C210.015 27.2861 210.775 27.4517 211.507 27.5514L211.642 26.5606C210.965 26.4683 210.253 26.3139 209.506 26.096L209.226 27.056ZM211.531 27.5541C212.286 27.6198 213.197 27.652 214.262 27.652V26.652C213.215 26.652 212.334 26.6202 211.618 26.5579L211.531 27.5541ZM235.024 0.847998V0.347998H234.524V0.847998H235.024ZM258.784 0.847998H259.284V0.347998H258.784V0.847998ZM258.784 6.176V6.676H259.284V6.176H258.784ZM242.512 6.176V5.676H242.012V6.176H242.512ZM242.512 13.328H242.012V13.828H242.512V13.328ZM257.2 13.328H257.7V12.828H257.2V13.328ZM257.2 18.656V19.156H257.7V18.656H257.2ZM242.512 18.656V18.156H242.012V18.656H242.512ZM242.512 26.672H242.012V27.172H242.512V26.672ZM259.264 26.672H259.764V26.172H259.264V26.672ZM259.264 32V32.5H259.764V32H259.264ZM235.024 32H234.524V32.5H235.024V32ZM235.024 1.348H258.784V0.347998H235.024V1.348ZM258.284 0.847998V6.176H259.284V0.847998H258.284ZM258.784 5.676H242.512V6.676H258.784V5.676ZM242.012 6.176V13.328H243.012V6.176H242.012ZM242.512 13.828H257.2V12.828H242.512V13.828ZM256.7 13.328V18.656H257.7V13.328H256.7ZM257.2 18.156H242.512V19.156H257.2V18.156ZM242.012 18.656V26.672H243.012V18.656H242.012ZM242.512 27.172H259.264V26.172H242.512V27.172ZM258.764 26.672V32H259.764V26.672H258.764ZM259.264 31.5H235.024V32.5H259.264V31.5ZM235.524 32V0.847998H234.524V32H235.524Z" fill="#E4E5F1"/>
</svg>
