<svg width="461" height="13" viewBox="0 0 461 13" fill="none" xmlns="http://www.w3.org/2000/svg">
<path d="M2 8.2093L4.18021 6.5C12.0443 0.33449 23.1015 0.334491 30.9656 6.5V6.5C38.8297 12.6655 49.887 12.6655 57.751 6.5V6.5C65.6151 0.33449 76.6724 0.33449 84.5365 6.5V6.5C92.4005 12.6655 103.458 12.6655 111.322 6.5V6.5C119.186 0.33449 130.243 0.334492 138.107 6.5V6.5C145.971 12.6655 157.029 12.6655 164.893 6.5V6.5C172.757 0.33449 183.814 0.334572 191.678 6.50008V6.50008C199.542 12.6655 210.599 12.6655 218.463 6.5001V6.5001C226.327 0.334607 237.385 0.334715 245.249 6.50045V6.50045C253.112 12.6658 264.171 12.6642 272.035 6.49977V6.49977C279.899 0.3357 290.958 0.334514 298.82 6.5V6.5C306.682 12.6655 317.741 12.6641 325.605 6.5V6.5C333.469 0.335941 344.528 0.334513 352.39 6.5V6.5C360.252 12.6655 371.308 12.6665 379.172 6.50243L379.598 6.16869C387.215 0.197746 397.924 0.198717 405.541 6.17105L406.906 7.24168C414.112 12.8923 424.328 12.5801 431.175 6.49996V6.49996C438.022 0.419905 448.238 0.107644 455.444 5.75815L458.57 8.2093" stroke="url(#paint0_linear_408_1659)" stroke-opacity="0.7" stroke-width="3" stroke-linecap="round"/>
<defs>
<linearGradient id="paint0_linear_408_1659" x1="312.212" y1="-4" x2="300.678" y2="67.164" gradientUnits="userSpaceOnUse">
<stop stop-color="#FF7EBC"/>
<stop offset="1" stop-color="#FFF596"/>
</linearGradient>
</defs>
</svg>
