<svg width="303" height="13" viewBox="0 0 303 13" fill="none" xmlns="http://www.w3.org/2000/svg">
<path d="M2 8.2093L4.18021 6.5C12.0443 0.33449 23.1015 0.334491 30.9656 6.5V6.5C38.8297 12.6655 49.887 12.6655 57.751 6.5V6.5C65.6151 0.33449 76.6724 0.33449 84.5365 6.5V6.5C92.4005 12.6655 103.458 12.6655 111.322 6.5V6.5C119.186 0.33449 130.243 0.334492 138.107 6.5V6.5C145.971 12.6655 157.029 12.6655 164.893 6.5V6.5C172.757 0.33449 183.814 0.33449 191.678 6.5V6.5C199.542 12.6655 210.599 12.6655 218.464 6.5V6.5C226.328 0.33449 237.385 0.33449 245.249 6.5V6.5C253.113 12.6655 264.17 12.6655 272.034 6.5V6.5C279.898 0.334488 290.956 0.334489 298.82 6.49999L301 8.2093" stroke="url(#paint0_linear_359_917)" stroke-opacity="0.7" stroke-width="3" stroke-linecap="round"/>
<defs>
<linearGradient id="paint0_linear_359_917" x1="312.213" y1="-4" x2="300.678" y2="67.164" gradientUnits="userSpaceOnUse">
<stop stop-color="#FF7EBC"/>
<stop offset="1" stop-color="#FFF596"/>
</linearGradient>
</defs>
</svg>
